<svg version="1.1" id="Layer_1" xmlns="http://www.w3.org/2000/svg" xmlns:xlink="http://www.w3.org/1999/xlink" x="0px" y="0px"
	 width="100%" viewBox="0 0 499 499" enable-background="new 0 0 499 499" xml:space="preserve">
<path fill="#000000" opacity="1.000000" stroke="none" 
	d="
M314.000000,500.000000 
	C209.333359,500.000000 105.166718,500.000000 1.000056,500.000000 
	C1.000037,333.666718 1.000037,167.333466 1.000019,1.000145 
	C167.333237,1.000097 333.666473,1.000097 499.999756,1.000048 
	C499.999847,167.333191 499.999847,333.666382 499.999939,499.999786 
	C438.166656,500.000000 376.333344,500.000000 314.000000,500.000000 
M70.904472,349.977173 
	C78.910217,349.950714 86.915955,349.924255 95.737335,349.899200 
	C100.810013,348.481049 106.575104,348.154602 110.834015,345.453430 
	C128.117874,334.491150 128.257812,309.076935 113.053093,296.974182 
	C113.053093,296.974182 113.042404,296.939056 112.867798,296.464081 
	C112.574562,296.325195 112.281319,296.186310 111.469002,295.835541 
	C111.033539,295.482330 110.598076,295.129120 109.705200,294.215942 
	C105.805382,293.135986 101.905571,292.056030 97.999901,291.002014 
	C97.999901,291.002014 98.021011,290.985382 97.824486,290.671295 
	C97.557686,290.785645 97.290894,290.899963 96.493713,291.098053 
	C96.317490,291.129425 96.141273,291.160797 95.507675,291.140686 
	C95.507675,291.140686 95.055206,291.225098 94.301262,291.140198 
	C93.544716,291.081940 92.788162,291.023682 91.453598,290.358551 
	C84.296967,290.263519 77.140335,290.168488 69.260178,290.518341 
	C69.191696,309.676819 69.123207,328.835327 68.982033,348.470337 
	C68.982033,348.470337 69.038231,348.949036 69.105171,349.461731 
	C69.392838,349.599030 69.680496,349.736328 70.904472,349.977173 
M350.011566,302.102173 
	C350.011566,298.472229 350.011566,294.842316 350.011566,291.359589 
	C344.901123,291.735382 341.103699,292.014648 337.195190,292.302063 
	C337.195190,293.942932 337.195190,295.531311 337.058929,297.954773 
	C337.286835,301.468628 337.302246,304.719849 332.181641,304.220215 
	C331.562927,304.159882 330.399475,305.560150 330.155792,306.463501 
	C328.809540,311.453522 330.325653,312.863220 337.013031,313.985321 
	C337.006470,322.074158 336.950653,330.163544 337.043640,338.251221 
	C337.058502,339.542938 337.740601,340.827026 338.391144,342.780090 
	C339.471863,344.194885 340.282288,346.011383 341.681519,346.952698 
	C346.866760,350.441101 352.523529,352.306671 358.735443,349.935181 
	C360.129761,349.402893 362.418488,347.627502 362.253754,347.185852 
	C361.267212,344.540497 363.931732,339.565369 357.606323,339.905762 
	C355.244598,340.032837 352.769348,338.050873 350.046326,336.125092 
	C350.078094,328.740601 350.109894,321.356110 350.556854,313.865448 
	C350.820953,313.701874 350.964539,313.465179 351.904572,313.034698 
	C354.368011,313.032349 356.840973,312.891937 359.292511,313.061523 
	C362.593140,313.289886 363.188049,311.423950 362.991028,308.765228 
	C362.805908,306.267151 362.684662,303.956573 359.087830,303.949463 
	C356.061737,303.943481 353.036957,303.285706 349.993866,303.002655 
	C349.993866,303.002655 350.079834,303.021362 350.011566,302.102173 
M248.618240,319.763275 
	C249.130890,318.826874 249.643524,317.890472 250.771652,316.654480 
	C251.560867,316.086243 252.298569,315.422394 253.147537,314.965027 
	C259.345673,311.625854 263.760010,314.291321 264.033417,321.439392 
	C264.317169,328.856476 264.940796,336.270966 264.924194,343.685455 
	C264.913544,348.455231 266.673126,350.477295 271.403839,349.959015 
	C272.885223,349.796692 274.389374,349.842255 276.772583,349.982452 
	C277.179321,349.414978 277.936707,348.850037 277.940826,348.279724 
	C278.016052,337.794586 278.020142,327.308685 277.958313,316.823456 
	C277.954590,316.194763 277.271881,315.570068 276.976318,314.201477 
	C275.046295,311.509186 273.632233,308.107574 271.089294,306.257904 
	C263.525574,300.756256 255.729080,301.701721 248.069244,306.105469 
	C247.733719,305.442871 247.379990,304.196899 247.065475,304.206757 
	C243.395279,304.321411 239.730988,304.625122 235.280731,305.313080 
	C234.979294,315.123657 234.474899,324.934082 234.468353,334.744843 
	C234.465408,339.158539 235.456573,343.572937 236.035675,348.444061 
	C236.035675,348.444061 236.211243,348.867889 236.435028,349.709534 
	C240.167908,349.709534 243.900772,349.709534 248.013687,349.709534 
	C248.013687,339.706909 248.013687,329.852173 247.997559,319.997498 
	C247.997559,319.997498 248.001022,320.012970 248.618240,319.763275 
M90.003235,133.009140 
	C90.003235,133.009140 90.029915,133.070160 89.218567,133.043747 
	C84.747566,132.784286 82.520195,135.091873 83.093513,139.342636 
	C83.784752,144.467728 82.347359,147.861755 76.407166,149.138168 
	C75.934738,149.136063 75.462303,149.133957 74.291435,149.042023 
	C72.500435,150.285828 70.709435,151.529648 68.992523,153.736679 
	C68.999947,190.621429 68.993149,227.506210 69.056709,264.390869 
	C69.059898,266.241364 69.672318,268.090790 70.054420,270.536926 
	C70.341217,271.034424 70.628014,271.531952 71.347580,272.692078 
	C75.366394,273.026947 79.440201,273.950348 83.393196,273.580963 
	C93.318726,272.653473 103.189621,271.141479 114.002487,269.941498 
	C122.302589,269.905945 130.602692,269.870392 139.738693,269.926727 
	C147.586685,272.042297 155.414993,274.236450 163.298523,276.210052 
	C164.962372,276.626648 166.908066,276.564392 168.587433,276.158356 
	C175.415146,274.507660 182.189774,272.637360 189.452698,270.772278 
	C189.745560,270.614685 189.951172,270.380463 190.555054,269.967102 
	C190.555054,269.967102 191.042358,269.873322 191.966965,269.970673 
	C202.958969,269.936523 213.950989,269.902344 225.749344,269.948700 
	C235.015594,271.284210 244.251709,272.912109 253.556747,273.871429 
	C262.517303,274.795197 263.504608,273.668091 264.812775,264.840027 
	C269.245087,263.621307 270.141388,260.855103 267.933929,257.087067 
	C265.905853,253.625229 263.579010,250.339355 261.417633,246.954376 
	C258.657745,242.632050 255.931793,238.288071 253.200378,233.967896 
	C263.380219,233.967896 272.310028,234.064560 281.235626,233.912415 
	C284.132080,233.863037 287.017487,233.162491 290.519165,232.810852 
	C291.027893,232.200394 291.536621,231.589951 291.980652,230.982132 
	C291.980652,230.982132 291.982727,231.046860 292.727203,230.587357 
	C292.816559,228.775116 292.976074,226.963196 292.984436,225.150589 
	C293.071045,206.418945 293.133270,187.687180 293.808533,168.693390 
	C294.739075,166.937027 296.859314,164.199966 296.373749,163.610916 
	C294.998169,161.942169 292.629578,160.976288 290.503265,160.091064 
	C289.449188,159.652237 288.067657,160.020996 286.835358,159.985901 
	C273.948181,159.618912 261.061188,159.244110 248.016632,157.962540 
	C247.999313,151.463776 247.974548,144.965027 247.967651,138.466248 
	C247.963898,134.927322 246.721527,132.935547 242.676041,132.965790 
	C238.420135,132.997604 234.160309,132.089569 229.900299,132.072617 
	C218.035553,132.025421 205.948975,131.044220 194.758667,136.092514 
	C185.855469,140.109024 177.310577,144.914673 168.523621,149.199829 
	C167.285950,149.803436 165.066528,150.107330 164.163116,149.419052 
	C154.694351,142.205109 143.875015,137.787430 132.670822,134.401276 
	C126.844292,132.640366 120.641411,131.402786 114.585632,131.301727 
	C106.685287,131.169891 98.762238,132.399323 90.750252,132.722336 
	C90.521629,132.826736 90.293007,132.931137 90.003235,133.009140 
M156.990280,350.021240 
	C156.990280,350.021240 157.037399,350.065094 157.844910,350.079742 
	C164.208710,350.541504 167.609299,345.980988 171.235870,341.994568 
	C176.045380,336.707825 174.518066,323.216278 168.146606,320.153503 
	C160.415970,316.437317 152.080368,313.979706 143.997162,311.000763 
	C143.997162,311.000763 144.020157,310.991821 143.692368,310.376007 
	C140.809738,305.688019 141.113449,303.148590 144.841187,300.770538 
	C147.655869,298.974945 154.982208,299.421600 157.234894,302.114532 
	C160.602325,306.140076 164.857666,306.215179 169.398331,305.931122 
	C172.163406,305.758087 173.101486,304.631775 172.425720,301.705719 
	C170.958023,295.350525 165.319656,290.641693 156.406082,289.166473 
	C156.205368,289.125061 156.004654,289.083618 155.738434,288.744873 
	C155.738434,288.744873 155.380524,288.653687 155.380524,288.653687 
	C155.380524,288.653687 155.197586,289.040405 154.261902,289.062561 
	C151.162750,289.106903 148.063614,289.151276 144.553162,288.760101 
	C142.689102,289.333099 140.791168,289.815247 138.967133,290.495544 
	C132.690567,292.836456 128.916077,298.169342 129.198776,304.824371 
	C129.260834,306.559845 129.322891,308.295288 129.170013,310.781860 
	C128.757278,317.944489 135.282928,321.615204 142.332230,323.682281 
	C149.024353,325.644623 155.590927,327.346252 160.954254,332.702026 
	C160.157257,336.753479 157.734146,339.204834 153.688126,340.007355 
	C151.792999,340.383270 149.880310,340.670654 147.654587,340.388519 
	C145.193283,337.894379 142.837692,335.279633 140.209946,332.975311 
	C139.357773,332.228058 137.784729,332.008972 136.555466,332.043793 
	C133.523285,332.129761 130.499237,332.502838 127.416023,332.765289 
	C123.885384,345.769745 142.956757,353.899017 155.484070,350.021240 
	C155.484070,350.021240 155.915985,350.018707 156.137299,350.353271 
	C156.441727,350.249573 156.746140,350.145844 156.990280,350.021240 
M184.406342,320.373474 
	C180.944336,329.952484 177.482330,339.531494 173.715500,349.953918 
	C177.446060,349.953918 180.230759,349.847656 183.003830,349.981812 
	C186.211563,350.136963 188.301132,349.220673 189.085617,345.714935 
	C189.749649,342.747528 191.045471,339.921478 192.990326,336.992676 
	C199.647873,337.021240 206.305405,337.049805 213.272186,337.720001 
	C213.773285,338.939178 214.350555,340.133179 214.763229,341.381592 
	C217.681702,350.210907 217.670944,350.214478 227.490662,349.867798 
	C227.658585,349.853790 227.826492,349.839813 228.704651,349.896667 
	C234.993729,347.854980 229.869370,345.162537 228.858154,342.354462 
	C228.858154,342.354462 228.607254,341.986389 228.701752,341.228790 
	C226.617355,335.080170 224.624649,328.898499 222.426178,322.790955 
	C219.443771,314.505585 215.984772,306.378204 213.323715,297.994659 
	C210.809204,290.072815 211.146790,289.966003 202.730652,289.965179 
	C201.074707,289.965027 199.406235,290.090088 197.765472,289.931061 
	C194.601501,289.624481 193.483719,290.965271 194.062943,294.447235 
	C194.062943,294.447235 193.968140,294.909363 193.402222,295.337585 
	C190.682709,303.225739 187.963196,311.113892 185.127792,319.492035 
	C185.087738,319.655060 185.047699,319.818054 184.406342,320.373474 
M406.903412,327.008392 
	C407.552612,317.324036 403.479340,309.006866 395.571106,304.773712 
	C389.093506,301.306335 380.704346,300.794556 373.388031,305.269958 
	C365.075714,310.354614 360.665588,327.977448 364.947632,337.968750 
	C369.435516,348.440247 381.859802,352.843109 392.010468,350.443176 
	C400.068024,348.538177 404.344818,343.881470 404.416473,337.351746 
	C395.691010,336.537537 395.361206,336.603363 388.884857,340.029633 
	C388.178406,340.403381 387.382172,340.884766 386.638184,340.867218 
	C379.262970,340.693542 376.844543,337.945099 377.965271,330.018097 
	C385.117554,330.274872 392.327515,331.115601 399.385590,330.418549 
	C401.399841,330.219666 405.917908,332.870819 406.903412,327.008392 
M299.937256,303.024658 
	C295.480591,305.696259 289.878967,307.440338 286.806366,311.233185 
	C280.471313,319.053284 280.427032,328.677246 284.145294,337.720093 
	C289.644745,351.094971 305.421051,354.410004 316.009735,349.038788 
	C329.025299,342.436462 330.463562,333.392059 328.387695,320.046844 
	C327.165741,312.191162 321.813751,306.921448 314.512421,304.500763 
	C310.259552,303.090820 305.414093,303.468262 299.937256,303.024658 
M409.004211,317.414520 
	C409.026611,322.069458 410.824493,325.954681 415.094849,327.847839 
	C419.164825,329.652161 423.687927,330.415161 427.821686,332.101898 
	C430.315735,333.119537 432.447144,335.025879 434.741516,336.532898 
	C432.559021,338.335297 430.610870,340.757782 428.105103,341.704620 
	C426.632080,342.261169 423.345490,341.047821 422.472290,339.639740 
	C418.610291,333.412109 413.129852,337.078003 407.741638,336.795532 
	C408.651031,340.216461 409.497559,343.875824 411.796997,345.788696 
	C419.487885,352.186615 428.611938,352.195984 437.736572,349.594849 
	C443.413635,347.976440 448.207642,338.986938 446.554382,334.139771 
	C444.449097,327.967255 440.642883,323.906464 433.842621,322.854431 
	C430.779480,322.380554 427.771118,321.183441 424.914673,319.916077 
	C423.694366,319.374664 422.320129,317.916962 422.114044,316.691040 
	C421.885895,315.333710 422.956390,312.483978 423.387909,312.498291 
	C426.032867,312.586060 428.704773,313.131104 431.275696,313.852020 
	C434.316284,314.704651 437.206818,316.163544 440.278320,316.801453 
	C441.589111,317.073669 444.203461,316.225067 444.450531,315.371887 
	C444.939850,313.681885 444.895782,310.864502 443.821930,309.888184 
	C441.216919,307.519684 438.106018,305.291870 434.805084,304.218414 
	C431.321533,303.085480 427.384216,303.105682 423.640198,303.063995 
	C414.469269,302.961914 409.943512,307.252563 409.004211,317.414520 
z"/>
<path fill="#093351" opacity="1.000000" stroke="none" 
	d="
M90.848953,133.043030 
	C98.762238,132.399323 106.685287,131.169891 114.585632,131.301727 
	C120.641411,131.402786 126.844292,132.640366 132.670822,134.401276 
	C143.875015,137.787430 154.694351,142.205109 164.163116,149.419052 
	C165.066528,150.107330 167.285950,149.803436 168.523621,149.199829 
	C177.310577,144.914673 185.855469,140.109024 194.758667,136.092514 
	C205.948975,131.044220 218.035553,132.025421 229.900299,132.072617 
	C234.160309,132.089569 238.420135,132.997604 242.676041,132.965790 
	C246.721527,132.935547 247.963898,134.927322 247.967651,138.466248 
	C247.974548,144.965027 247.999313,151.463776 247.718903,158.592667 
	C244.668564,159.357895 241.915955,159.492996 239.149445,159.469620 
	C239.135544,159.311127 239.152512,158.987183 239.121826,158.521271 
	C239.067886,154.057022 238.806198,150.041809 239.087677,146.065033 
	C239.375900,141.992905 237.233475,140.419327 233.806229,140.730499 
	C222.692703,141.739502 211.405701,139.579666 200.434174,143.954727 
	C190.047348,148.096634 179.879028,152.287140 171.121902,160.132812 
	C170.463135,161.563477 170.011780,162.830887 170.010437,164.098770 
	C169.977814,195.182327 169.981995,226.265961 170.040924,257.349457 
	C170.043198,258.552612 170.653152,259.754578 171.212814,261.203339 
	C172.634476,261.168793 173.885178,261.039490 175.002289,260.583160 
	C183.764481,257.003876 192.475281,253.297638 201.258331,249.771011 
	C204.759766,248.365067 208.403412,247.313232 212.222870,246.068481 
	C212.463440,246.036758 212.945663,245.982361 213.198303,245.991943 
	C213.619415,246.006271 213.787888,246.011032 214.396851,246.045807 
	C216.888657,246.147888 218.939972,246.219940 220.992096,246.643372 
	C220.013000,248.999329 219.033096,251.003891 218.038239,253.039032 
	C215.704895,251.721756 214.337402,250.949738 212.420242,249.867416 
	C211.849548,251.860184 211.419006,253.363541 210.758102,254.929291 
	C210.527740,254.991684 210.067505,255.118301 209.919662,254.831726 
	C208.863800,254.042007 207.839401,252.974182 207.067856,253.133209 
	C203.688461,253.829742 200.311417,254.684769 197.066986,255.852966 
	C192.716934,257.419281 188.490021,259.327606 184.210236,261.089081 
	C184.369339,261.786407 184.528427,262.483734 184.687515,263.181061 
	C187.790237,263.181061 190.892960,263.181061 194.446533,263.135986 
	C199.283142,262.792236 203.668915,262.493530 208.368912,262.414612 
	C215.127228,262.765045 221.571304,262.895660 228.414001,263.036835 
	C229.875793,263.036499 230.938965,263.025665 232.225479,263.247070 
	C233.619919,263.369659 234.791016,263.260040 236.300446,263.141663 
	C237.088562,263.164398 237.538361,263.195892 238.079712,263.525940 
	C239.423477,263.948547 240.675720,264.072571 242.278625,264.174713 
	C243.097702,264.153534 243.566086,264.154236 244.238693,264.370911 
	C245.644394,264.706848 246.845871,264.826752 248.418152,264.996704 
	C249.536026,265.084930 250.283096,265.123138 251.160583,265.339203 
	C251.498795,265.735413 251.745148,265.893951 252.419495,265.941040 
	C253.557587,264.450989 254.695633,263.081329 254.964935,261.558044 
	C255.385025,259.181915 255.215912,256.701599 255.536621,254.460724 
	C258.544373,258.065308 261.311951,261.474640 264.079529,264.883942 
	C263.504608,273.668091 262.517303,274.795197 253.556747,273.871429 
	C244.251709,272.912109 235.015594,271.284210 225.020721,269.668121 
	C216.587799,269.254669 208.883224,269.017395 201.179291,269.037079 
	C197.799622,269.045715 194.421295,269.578522 191.042358,269.873322 
	C191.042358,269.873322 190.555054,269.967102 190.166748,269.881805 
	C189.513611,270.147003 189.248795,270.497498 188.983948,270.847992 
	C182.189774,272.637360 175.415146,274.507660 168.587433,276.158356 
	C166.908066,276.564392 164.962372,276.626648 163.298523,276.210052 
	C155.414993,274.236450 147.586685,272.042297 138.996460,269.645081 
	C129.863632,269.530243 121.473030,269.697052 113.082428,269.863892 
	C103.189621,271.141479 93.318726,272.653473 83.393196,273.580963 
	C79.440201,273.950348 75.366394,273.026947 71.400299,272.094910 
	C71.314499,231.999252 71.175987,192.500748 71.323593,152.864532 
	C72.736435,151.528519 73.863152,150.330185 74.989876,149.131851 
	C75.462303,149.133957 75.934738,149.136063 77.031006,149.372253 
	C81.708626,150.870758 83.981918,148.737335 84.303802,145.159790 
	C84.742065,140.288712 85.863174,136.038666 90.029915,133.070160 
	C90.029915,133.070160 90.003235,133.009140 90.229729,133.018448 
	C90.456223,133.027756 90.848953,133.043030 90.848953,133.043030 
M159.183136,260.235138 
	C159.183136,260.235138 159.610046,260.380127 159.610046,260.380127 
	C159.610046,260.380127 159.987946,260.084534 160.518127,260.072968 
	C160.694855,260.077820 160.871567,260.082642 161.569580,260.509644 
	C162.049026,258.988129 162.941071,257.468079 162.946442,255.944916 
	C163.035660,230.612610 163.013794,205.279922 163.012360,179.021423 
	C163.011124,174.055450 162.912598,169.087128 163.032379,164.124084 
	C163.195633,157.359909 160.912231,154.398224 154.061096,152.928833 
	C154.061096,152.928833 154.032410,152.854477 153.836731,152.221725 
	C152.874588,151.838470 151.912430,151.455215 150.983017,151.001053 
	C150.983017,151.001053 150.935211,151.064713 150.841324,150.378326 
	C147.064331,145.232117 141.469650,144.469925 135.370087,144.040848 
	C135.370087,144.040848 135.031921,143.966599 134.646011,143.358658 
	C133.966827,142.916153 133.340927,142.333572 132.600540,142.052017 
	C120.300934,137.374756 107.470619,139.231064 94.818176,139.255478 
	C93.542435,139.257935 92.271385,141.699524 90.979385,143.515274 
	C90.973221,143.683990 90.967056,143.852692 90.458939,144.614822 
	C90.624077,147.385712 90.789223,150.156616 90.958725,153.508026 
	C90.952827,153.701462 90.946922,153.894882 90.429024,154.713303 
	C90.292442,155.522537 90.037117,156.331665 90.036461,157.141006 
	C90.013794,184.844345 90.002876,212.547699 90.053680,240.250961 
	C90.055962,241.494675 90.649452,242.737305 90.991402,244.514175 
	C90.992203,244.692261 90.993011,244.870361 91.042030,245.490082 
	C91.419464,245.589661 91.796890,245.689255 92.805824,245.958099 
	C93.232719,246.045593 93.659607,246.133102 94.653526,246.628326 
	C96.439713,246.150711 98.225899,245.673096 100.940399,245.108032 
	C105.970276,245.131500 111.000145,245.154953 116.288170,245.527847 
	C116.493111,245.742355 116.735214,245.899689 117.700241,246.051620 
	C118.157700,246.082108 118.615150,246.112579 119.586876,246.660370 
	C125.460510,248.080612 131.330704,249.515320 137.209229,250.915009 
	C140.181778,251.622803 143.169403,252.267197 146.560654,253.018127 
	C146.560654,253.018127 146.978088,253.035156 147.282303,253.449799 
	C147.578415,253.616409 147.874527,253.783020 148.577133,253.977417 
	C148.577133,253.977417 148.984604,253.976990 149.141373,254.657715 
	C150.126129,255.094345 151.110870,255.530975 152.526703,256.030060 
	C152.526703,256.030060 152.962189,256.020630 153.278244,256.441833 
	C153.584641,256.605621 153.891037,256.769409 154.579376,256.996460 
	C154.579376,256.996460 154.965698,257.021912 155.240234,257.423706 
	C155.459991,257.674866 155.729370,257.849457 156.057861,257.955200 
	C156.057861,257.955200 156.068756,257.935150 156.168503,258.622040 
	C157.130020,259.062744 158.091537,259.503479 159.000687,259.997620 
	C159.000687,259.997620 159.037445,259.932434 159.183136,260.235138 
M83.647209,208.308838 
	C83.755157,207.826614 83.951584,207.345627 83.958244,206.862000 
	C84.177101,190.976700 84.388084,175.091248 84.521988,159.205139 
	C84.525375,158.803940 83.650063,158.395325 82.989807,157.498245 
	C82.690384,157.359985 82.390961,157.221725 81.697960,156.551590 
	C80.766479,156.738693 79.835007,156.925797 78.390198,157.175262 
	C78.204361,157.459091 78.018524,157.742920 77.365112,158.701675 
	C77.243233,159.515091 77.015236,160.328445 77.014771,161.141937 
	C76.995789,193.832993 76.987808,226.524094 77.032600,259.215088 
	C77.034325,260.474762 77.569107,261.733704 77.996719,263.591370 
	C78.315475,264.055542 78.634232,264.519745 79.537560,264.983185 
	C79.732002,264.970581 79.926453,264.957947 80.572983,265.023590 
	C80.572983,265.023590 81.023888,265.108307 81.631950,265.581482 
	C83.102196,265.648224 84.610817,265.963867 86.036873,265.743988 
	C104.446922,262.905487 122.921600,262.057404 141.503845,263.584351 
	C142.327499,263.652039 143.240799,262.628662 144.712097,261.912018 
	C144.390732,260.791046 144.315002,258.856201 143.710373,258.673706 
	C136.930862,256.627319 130.162262,254.306183 123.209587,253.127182 
	C112.359261,251.287247 101.382515,251.301468 90.427467,252.923676 
	C87.058403,253.422546 85.117775,251.617661 84.998779,248.058243 
	C84.689133,238.795471 84.370270,229.532730 83.976997,220.273300 
	C83.901535,218.496536 83.469643,216.734924 83.055069,214.314163 
	C83.099243,213.873215 83.143425,213.432281 83.530769,212.657928 
	C83.415489,212.107986 83.300209,211.558029 83.042114,210.343369 
	C83.093124,209.895279 83.144142,209.447189 83.647209,208.308838 
z"/>
<path fill="#ED791E" opacity="1.000000" stroke="none" 
	d="
M264.446167,264.862000 
	C261.311951,261.474640 258.544373,258.065308 255.181885,254.308441 
	C250.698837,248.359909 246.810715,242.758926 242.558899,236.634048 
	C240.689438,239.709854 238.886841,242.675690 236.773605,245.828735 
	C234.660858,248.939697 232.858765,251.863449 230.730682,254.928680 
	C229.272888,257.248047 228.141098,259.425903 226.553375,261.695801 
	C223.268646,261.782104 220.439850,261.776398 217.534363,261.458008 
	C217.214905,260.105835 216.972137,259.066376 216.920654,257.762146 
	C217.422562,256.733215 217.733185,255.969086 218.348755,255.039398 
	C220.695145,251.627914 222.736572,248.381943 224.955765,244.813339 
	C227.174164,241.258148 229.214798,238.025574 231.528702,234.360123 
	C229.500290,234.089294 228.109970,233.739731 226.720963,233.744843 
	C217.765259,233.777847 208.809128,233.986710 199.854706,233.921448 
	C196.611801,233.897827 193.708542,232.817200 193.002151,228.524429 
	C192.999481,210.129990 193.012466,192.203552 192.932968,174.277527 
	C192.925323,172.550476 192.343536,170.825943 191.663177,169.029388 
	C190.242798,166.962433 188.845459,165.047440 188.341339,162.920700 
	C188.190735,162.285400 190.458923,160.375122 191.757126,160.222198 
	C196.770767,159.631683 201.840286,159.515472 207.255356,159.437775 
	C218.135605,159.644730 228.649460,159.636414 239.163330,159.628113 
	C241.915955,159.492996 244.668564,159.357895 247.797668,159.047119 
	C261.061188,159.244110 273.948181,159.618912 286.835358,159.985901 
	C288.067657,160.020996 289.449188,159.652237 290.503265,160.091064 
	C292.629578,160.976288 294.998169,161.942169 296.373749,163.610916 
	C296.859314,164.199966 294.739075,166.937027 293.184814,169.115738 
	C292.353119,170.658676 291.965271,171.779068 291.963989,172.899887 
	C291.942017,192.282181 291.967590,211.664520 291.982727,231.046860 
	C291.982727,231.046860 291.980652,230.982132 291.705627,231.004623 
	C290.923035,231.604691 290.415497,232.182251 289.907928,232.759811 
	C287.017487,233.162491 284.132080,233.863037 281.235626,233.912415 
	C272.310028,234.064560 263.380219,233.967896 253.200378,233.967896 
	C255.931793,238.288071 258.657745,242.632050 261.417633,246.954376 
	C263.579010,250.339355 265.905853,253.625229 267.933929,257.087067 
	C270.141388,260.855103 269.245087,263.621307 264.446167,264.862000 
M201.973068,223.013199 
	C201.973068,223.013199 201.970093,222.914505 202.289154,223.448807 
	C202.849167,223.699402 203.409180,223.949997 204.665436,224.652603 
	C204.984818,224.742538 205.304047,224.910736 205.623581,224.911301 
	C230.252701,224.954559 254.881851,225.003632 279.510834,224.956238 
	C280.666351,224.954025 281.820221,224.083679 282.834564,223.335205 
	C282.834564,223.335205 282.968018,223.049484 283.021271,222.109085 
	C283.082550,216.460968 283.143829,210.812836 283.687561,204.452454 
	C283.791107,193.667953 283.915192,182.883499 283.950775,172.098785 
	C283.953094,171.396103 283.275543,170.691177 282.221527,169.722366 
	C271.510101,169.746902 260.798676,169.771439 249.436584,169.247223 
	C243.963501,169.111252 238.488541,168.823563 233.018005,168.891907 
	C229.290146,168.938477 225.568481,169.482895 220.939941,169.966995 
	C214.689850,169.967972 208.439743,169.968933 201.498505,170.486801 
	C201.324799,171.120819 201.000671,171.754517 200.999344,172.388885 
	C200.966782,188.217667 200.947266,204.046631 201.011353,219.875183 
	C201.015610,220.923080 201.702454,221.968216 201.973068,223.013199 
z"/>
<path fill="#093452" opacity="1.000000" stroke="none" 
	d="
M95.965065,291.192169 
	C96.141273,291.160797 96.317490,291.129425 97.008125,291.051086 
	C97.522537,291.004150 98.021011,290.985382 98.021011,290.985382 
	C98.021011,290.985382 97.999901,291.002014 98.174843,291.297546 
	C102.143951,293.186371 105.379372,296.853424 110.162613,294.775909 
	C110.598076,295.129120 111.033539,295.482330 111.862793,296.135010 
	C112.472176,296.674866 112.734116,296.843048 113.042404,296.939056 
	C113.042404,296.939056 113.053093,296.974182 113.051605,297.333984 
	C113.591888,298.860199 113.909195,300.218842 114.714638,301.159485 
	C118.026237,305.026978 120.159546,309.241852 120.723259,314.456238 
	C121.505486,321.691986 121.720329,329.072968 117.826439,335.186279 
	C113.769608,341.555328 107.187111,345.387177 99.598068,346.988312 
	C96.398766,347.663330 93.189499,348.291077 89.536949,348.954468 
	C86.399261,348.959198 83.709381,348.949799 80.704811,348.691406 
	C79.581490,348.296082 78.776886,348.052338 77.963608,348.018768 
	C71.010353,347.731537 71.006432,347.742920 71.003975,340.576080 
	C70.999313,326.944183 71.157631,313.309418 70.908340,299.682037 
	C70.824417,295.094116 72.056046,293.020050 76.959900,292.870209 
	C81.998512,292.716278 87.008888,291.638763 92.031616,290.965393 
	C92.788162,291.023682 93.544716,291.081940 94.776138,291.282654 
	C95.251007,291.425079 95.648094,291.460388 95.648094,291.460388 
	C95.648094,291.460388 95.965065,291.192169 95.965065,291.192169 
M82.465408,338.022339 
	C82.465408,338.022339 82.891762,337.982269 83.481125,338.577209 
	C87.392693,338.398346 91.345093,338.512787 95.206711,337.975189 
	C101.800537,337.057220 109.161461,330.541290 109.951622,325.224182 
	C111.270332,316.350403 107.986694,306.608673 100.102722,304.211090 
	C94.574806,302.529968 88.686554,302.033722 82.516769,300.965942 
	C82.516769,300.965942 82.074402,301.008972 81.500610,301.615051 
	C81.397598,313.653900 81.292900,325.692719 81.226654,337.731750 
	C81.226212,337.813660 81.756577,337.898468 82.465408,338.022339 
z"/>
<path fill="#EB791F" opacity="1.000000" stroke="none" 
	d="
M300.386261,303.033081 
	C305.414093,303.468262 310.259552,303.090820 314.512421,304.500763 
	C321.813751,306.921448 327.165741,312.191162 328.387695,320.046844 
	C330.463562,333.392059 329.025299,342.436462 316.009735,349.038788 
	C305.421051,354.410004 289.644745,351.094971 284.145294,337.720093 
	C280.427032,328.677246 280.471313,319.053284 286.806366,311.233185 
	C289.878967,307.440338 295.480591,305.696259 300.386261,303.033081 
M302.331879,313.199677 
	C296.005402,316.901459 294.421326,322.657227 294.922150,329.543884 
	C295.622437,339.173737 303.654541,342.501312 309.992737,339.411560 
	C314.717712,337.108215 317.424408,329.078613 315.989349,323.103119 
	C314.347839,316.268036 310.068665,312.907837 302.331879,313.199677 
z"/>
<path fill="#EC791F" opacity="1.000000" stroke="none" 
	d="
M377.037659,330.108002 
	C376.844543,337.945099 379.262970,340.693542 386.638184,340.867218 
	C387.382172,340.884766 388.178406,340.403381 388.884857,340.029633 
	C395.361206,336.603363 395.691010,336.537537 404.416473,337.351746 
	C404.344818,343.881470 400.068024,348.538177 392.010468,350.443176 
	C381.859802,352.843109 369.435516,348.440247 364.947632,337.968750 
	C360.665588,327.977448 365.075714,310.354614 373.388031,305.269958 
	C380.704346,300.794556 389.093506,301.306335 395.571106,304.773712 
	C403.479340,309.006866 407.552612,317.324036 406.426147,327.550262 
	C398.173645,328.372925 390.395355,328.592407 382.625366,328.978729 
	C380.748718,329.072021 378.899506,329.716827 377.037659,330.108002 
M377.028015,319.008453 
	C377.028015,319.008453 377.104675,319.013367 376.584625,319.271332 
	C376.807068,319.852875 377.029510,320.434418 377.582550,321.031006 
	C377.582550,321.031006 377.887146,321.160400 378.589691,321.626160 
	C383.065735,321.382172 387.541748,321.138184 391.997375,320.991455 
	C391.997375,320.991455 391.900391,320.969666 392.646576,320.853760 
	C394.817322,318.771271 394.804901,317.084106 391.395355,315.871460 
	C391.161072,315.731567 391.043427,315.525177 391.011353,314.556122 
	C390.609894,314.031281 390.208405,313.506439 388.938751,312.976807 
	C384.339661,312.636139 379.797394,312.421936 377.458435,318.249939 
	C377.216034,318.477478 377.072235,318.755920 377.028015,319.008453 
z"/>
<path fill="#073552" opacity="1.000000" stroke="none" 
	d="
M193.968140,294.909363 
	C193.968140,294.909363 194.062943,294.447235 194.480835,294.146484 
	C203.567093,289.268494 209.896759,292.110657 211.905380,301.484253 
	C212.145493,302.604828 212.222626,303.785248 212.626648,304.841858 
	C216.430817,314.790344 220.193039,324.757141 224.197479,334.625275 
	C225.260223,337.244202 227.115738,339.541443 228.607254,341.986389 
	C228.607254,341.986389 228.858154,342.354462 228.945557,342.954224 
	C228.686783,345.644592 228.340591,347.735199 227.994415,349.825806 
	C227.826492,349.839813 227.658585,349.853790 227.134460,349.515808 
	C221.101334,347.700104 217.524277,344.230713 216.056976,338.455811 
	C215.884857,337.778381 214.035019,337.527161 212.962952,337.078339 
	C206.305405,337.049805 199.647873,337.021240 192.138412,337.013855 
	C187.074814,337.533234 187.968994,341.236542 186.880478,343.783752 
	C186.340683,345.046844 184.975800,346.623322 183.801819,346.792542 
	C182.066818,347.042603 179.893677,346.562286 178.473312,345.576874 
	C177.885223,345.168854 178.586136,342.603210 179.000229,341.101379 
	C180.945724,334.045532 182.995270,327.018402 185.007660,319.981018 
	C185.047699,319.818054 185.087738,319.655060 185.500214,319.146179 
	C189.735046,311.231079 193.372467,303.585571 193.968140,294.909363 
M197.208176,326.811462 
	C201.258072,326.712830 205.307953,326.614197 209.733658,326.506409 
	C207.091385,318.639771 204.928101,312.199219 202.764816,305.758636 
	C202.386917,305.829926 202.009018,305.901215 201.631119,305.972504 
	C199.920731,312.775696 198.210342,319.578888 197.208176,326.811462 
z"/>
<path fill="#E97921" opacity="1.000000" stroke="none" 
	d="
M409.003540,316.989136 
	C409.943512,307.252563 414.469269,302.961914 423.640198,303.063995 
	C427.384216,303.105682 431.321533,303.085480 434.805084,304.218414 
	C438.106018,305.291870 441.216919,307.519684 443.821930,309.888184 
	C444.895782,310.864502 444.939850,313.681885 444.450531,315.371887 
	C444.203461,316.225067 441.589111,317.073669 440.278320,316.801453 
	C437.206818,316.163544 434.316284,314.704651 431.275696,313.852020 
	C428.704773,313.131104 426.032867,312.586060 423.387909,312.498291 
	C422.956390,312.483978 421.885895,315.333710 422.114044,316.691040 
	C422.320129,317.916962 423.694366,319.374664 424.914673,319.916077 
	C427.771118,321.183441 430.779480,322.380554 433.842621,322.854431 
	C440.642883,323.906464 444.449097,327.967255 446.554382,334.139771 
	C448.207642,338.986938 443.413635,347.976440 437.736572,349.594849 
	C428.611938,352.195984 419.487885,352.186615 411.796997,345.788696 
	C409.497559,343.875824 408.651031,340.216461 407.741638,336.795532 
	C413.129852,337.078003 418.610291,333.412109 422.472290,339.639740 
	C423.345490,341.047821 426.632080,342.261169 428.105103,341.704620 
	C430.610870,340.757782 432.559021,338.335297 434.741516,336.532898 
	C432.447144,335.025879 430.315735,333.119537 427.821686,332.101898 
	C423.687927,330.415161 419.164825,329.652161 415.094849,327.847839 
	C410.824493,325.954681 409.026611,322.069458 409.003540,316.989136 
z"/>
<path fill="#F1791B" opacity="1.000000" stroke="none" 
	d="
M275.883118,349.792664 
	C274.389374,349.842255 272.885223,349.796692 271.403839,349.959015 
	C266.673126,350.477295 264.913544,348.455231 264.924194,343.685455 
	C264.940796,336.270966 264.317169,328.856476 264.033417,321.439392 
	C263.760010,314.291321 259.345673,311.625854 253.147537,314.965027 
	C252.298569,315.422394 251.560867,316.086243 250.144867,316.920532 
	C249.012405,318.128723 248.506714,319.070862 248.001022,320.012970 
	C248.001022,320.012970 247.997559,319.997498 247.722168,320.305359 
	C247.291489,328.516785 247.063980,336.419891 247.019485,344.324036 
	C247.003616,347.144196 246.720535,349.363953 242.863220,348.706787 
	C241.726593,348.624481 240.814484,348.747467 239.616699,348.861694 
	C238.952682,348.828369 238.574310,348.803802 238.081512,348.386963 
	C237.659836,346.212250 237.100037,344.431702 237.086853,342.647125 
	C237.008163,331.994049 237.031677,321.339935 237.070862,310.686371 
	C237.090088,305.461823 238.128036,304.443359 243.248901,305.069489 
	C244.973724,305.280334 246.599396,306.302155 248.270386,306.953339 
	C255.729080,301.701721 263.525574,300.756256 271.089294,306.257904 
	C273.632233,308.107574 275.046295,311.509186 276.951477,315.046021 
	C276.948547,325.462433 277.025513,335.034851 276.941925,344.605835 
	C276.926788,346.337708 276.252899,348.063873 275.883118,349.792664 
z"/>
<path fill="#073552" opacity="1.000000" stroke="none" 
	d="
M155.803940,289.042206 
	C156.004654,289.083618 156.205368,289.125061 156.777405,289.554718 
	C159.008301,291.206055 160.950974,292.364716 162.704773,293.760651 
	C164.578308,295.251923 166.644653,296.726532 167.907593,298.674683 
	C168.665436,299.843689 168.047424,301.904541 168.047775,303.564575 
	C166.151230,303.442261 164.207550,303.524017 162.380280,303.101898 
	C161.599060,302.921417 161.109695,301.640656 160.403793,300.944977 
	C155.525833,296.137573 146.700012,295.453217 141.781265,300.064240 
	C140.171951,301.572876 139.221222,304.708984 139.460770,306.940735 
	C139.621368,308.436981 142.408340,309.651337 144.020157,310.991821 
	C144.020157,310.991821 143.997162,311.000763 144.079376,311.336243 
	C148.635925,313.860168 152.922043,317.148987 157.632904,317.954803 
	C163.352783,318.933289 167.480698,321.591888 169.824524,326.172028 
	C171.949020,330.323547 172.988251,335.418579 168.948364,339.498749 
	C166.431519,342.040680 163.550507,344.220581 160.852020,346.584747 
	C159.557632,347.718781 158.307556,348.903412 157.037399,350.065094 
	C157.037399,350.065094 156.990280,350.021240 156.736816,350.019104 
	C156.294235,350.017517 156.105118,350.018127 155.915985,350.018707 
	C155.915985,350.018707 155.484070,350.021240 154.957794,349.763550 
	C146.041916,348.987457 137.653427,348.316742 131.727066,341.240845 
	C130.504089,339.780640 130.092056,337.641205 129.306244,335.814850 
	C130.890167,335.212982 132.678848,333.833435 134.011887,334.184418 
	C136.226852,334.767639 138.082581,336.596283 140.212097,337.653717 
	C142.732086,338.905121 145.381989,339.894958 147.975586,340.998138 
	C149.880310,340.670654 151.792999,340.383270 153.688126,340.007355 
	C157.734146,339.204834 160.157257,336.753479 160.978027,331.950104 
	C160.705063,326.063324 156.603729,324.931976 152.840744,324.120575 
	C145.536377,322.545563 138.439285,320.919220 133.645050,314.418457 
	C132.446167,312.792786 130.816574,311.484772 129.384949,310.030762 
	C129.322891,308.295288 129.260834,306.559845 129.563904,304.306274 
	C134.369934,298.920258 137.456757,292.559601 144.524628,290.560944 
	C144.779556,290.488861 144.822647,289.667694 144.964462,289.195648 
	C148.063614,289.151276 151.162750,289.106903 154.880493,289.044983 
	C155.499084,289.027435 155.803940,289.042206 155.803940,289.042206 
z"/>
<path fill="#F1791B" opacity="1.000000" stroke="none" 
	d="
M336.965332,313.060791 
	C330.325653,312.863220 328.809540,311.453522 330.155792,306.463501 
	C330.399475,305.560150 331.562927,304.159882 332.181641,304.220215 
	C337.302246,304.719849 337.286835,301.468628 337.414307,297.325928 
	C337.990204,296.449249 338.165680,296.063995 338.438110,295.974731 
	C341.271088,295.046661 344.089111,293.913879 346.998932,293.561218 
	C347.406647,293.511810 348.290283,297.350891 348.945038,299.392761 
	C349.332031,300.599487 349.702148,301.811646 350.079834,303.021362 
	C350.079834,303.021362 349.993866,303.002655 350.091187,303.345306 
	C352.689636,304.125732 355.309845,304.246399 357.645844,305.123840 
	C358.983002,305.626099 360.702118,307.360809 360.699493,308.537140 
	C360.696960,309.675018 358.900024,311.279419 357.545471,311.833344 
	C355.518341,312.662384 353.188629,312.751526 350.987610,313.155365 
	C350.964539,313.465179 350.820953,313.701874 350.024414,314.199890 
	C349.306366,320.898987 349.047821,327.263184 349.003021,333.628876 
	C348.995026,334.759552 349.875580,335.896484 350.345856,337.030548 
	C352.769348,338.050873 355.244598,340.032837 357.606323,339.905762 
	C363.931732,339.565369 361.267212,344.540497 362.253754,347.185852 
	C362.418488,347.627502 360.129761,349.402893 358.735443,349.935181 
	C352.523529,352.306671 346.866760,350.441101 341.681519,346.952698 
	C340.282288,346.011383 339.471863,344.194885 338.251801,341.968201 
	C338.113068,334.008179 338.202789,326.858276 338.061584,319.712921 
	C338.017609,317.489197 337.348328,315.277832 336.965332,313.060791 
z"/>
<path fill="#153247" opacity="1.000000" stroke="none" 
	d="
M89.984756,348.940308 
	C93.189499,348.291077 96.398766,347.663330 99.598068,346.988312 
	C107.187111,345.387177 113.769608,341.555328 117.826439,335.186279 
	C121.720329,329.072968 121.505486,321.691986 120.723259,314.456238 
	C120.159546,309.241852 118.026237,305.026978 114.714638,301.159485 
	C113.909195,300.218842 113.591888,298.860199 113.067932,297.325562 
	C128.257812,309.076935 128.117874,334.491150 110.834015,345.453430 
	C106.575104,348.154602 100.810013,348.481049 95.066895,349.649414 
	C92.925880,349.246521 91.455315,349.093414 89.984756,348.940308 
z"/>
<path fill="#19354A" opacity="1.000000" stroke="none" 
	d="
M228.654510,341.607605 
	C227.115738,339.541443 225.260223,337.244202 224.197479,334.625275 
	C220.193039,324.757141 216.430817,314.790344 212.626648,304.841858 
	C212.222626,303.785248 212.145493,302.604828 211.905380,301.484253 
	C209.896759,292.110657 203.567093,289.268494 194.535767,293.917114 
	C193.483719,290.965271 194.601501,289.624481 197.765472,289.931061 
	C199.406235,290.090088 201.074707,289.965027 202.730652,289.965179 
	C211.146790,289.966003 210.809204,290.072815 213.323715,297.994659 
	C215.984772,306.378204 219.443771,314.505585 222.426178,322.790955 
	C224.624649,328.898499 226.617355,335.080170 228.654510,341.607605 
z"/>
<path fill="#19354A" opacity="1.000000" stroke="none" 
	d="
M143.856262,310.683899 
	C142.408340,309.651337 139.621368,308.436981 139.460770,306.940735 
	C139.221222,304.708984 140.171951,301.572876 141.781265,300.064240 
	C146.700012,295.453217 155.525833,296.137573 160.403793,300.944977 
	C161.109695,301.640656 161.599060,302.921417 162.380280,303.101898 
	C164.207550,303.524017 166.151230,303.442261 168.047775,303.564575 
	C168.047424,301.904541 168.665436,299.843689 167.907593,298.674683 
	C166.644653,296.726532 164.578308,295.251923 162.704773,293.760651 
	C160.950974,292.364716 159.008301,291.206055 157.077179,289.622925 
	C165.319656,290.641693 170.958023,295.350525 172.425720,301.705719 
	C173.101486,304.631775 172.163406,305.758087 169.398331,305.931122 
	C164.857666,306.215179 160.602325,306.140076 157.234894,302.114532 
	C154.982208,299.421600 147.655869,298.974945 144.841187,300.770538 
	C141.113449,303.148590 140.809738,305.688019 143.856262,310.683899 
z"/>
<path fill="#19354A" opacity="1.000000" stroke="none" 
	d="
M157.441162,350.072418 
	C158.307556,348.903412 159.557632,347.718781 160.852020,346.584747 
	C163.550507,344.220581 166.431519,342.040680 168.948364,339.498749 
	C172.988251,335.418579 171.949020,330.323547 169.824524,326.172028 
	C167.480698,321.591888 163.352783,318.933289 157.632904,317.954803 
	C152.922043,317.148987 148.635925,313.860168 144.084045,311.324646 
	C152.080368,313.979706 160.415970,316.437317 168.146606,320.153503 
	C174.518066,323.216278 176.045380,336.707825 171.235870,341.994568 
	C167.609299,345.980988 164.208710,350.541504 157.441162,350.072418 
z"/>
<path fill="#19354A" opacity="1.000000" stroke="none" 
	d="
M147.815094,340.693329 
	C145.381989,339.894958 142.732086,338.905121 140.212097,337.653717 
	C138.082581,336.596283 136.226852,334.767639 134.011887,334.184418 
	C132.678848,333.833435 130.890167,335.212982 129.306244,335.814850 
	C130.092056,337.641205 130.504089,339.780640 131.727066,341.240845 
	C137.653427,348.316742 146.041916,348.987457 154.742310,349.777771 
	C142.956757,353.899017 123.885384,345.769745 127.416023,332.765289 
	C130.499237,332.502838 133.523285,332.129761 136.555466,332.043793 
	C137.784729,332.008972 139.357773,332.228058 140.209946,332.975311 
	C142.837692,335.279633 145.193283,337.894379 147.815094,340.693329 
z"/>
<path fill="#19354A" opacity="1.000000" stroke="none" 
	d="
M184.707001,320.177246 
	C182.995270,327.018402 180.945724,334.045532 179.000229,341.101379 
	C178.586136,342.603210 177.885223,345.168854 178.473312,345.576874 
	C179.893677,346.562286 182.066818,347.042603 183.801819,346.792542 
	C184.975800,346.623322 186.340683,345.046844 186.880478,343.783752 
	C187.968994,341.236542 187.074814,337.533234 191.674103,337.033936 
	C191.045471,339.921478 189.749649,342.747528 189.085617,345.714935 
	C188.301132,349.220673 186.211563,350.136963 183.003830,349.981812 
	C180.230759,349.847656 177.446060,349.953918 173.715500,349.953918 
	C177.482330,339.531494 180.944336,329.952484 184.707001,320.177246 
z"/>
<path fill="#153247" opacity="1.000000" stroke="none" 
	d="
M91.742607,290.661987 
	C87.008888,291.638763 81.998512,292.716278 76.959900,292.870209 
	C72.056046,293.020050 70.824417,295.094116 70.908340,299.682037 
	C71.157631,313.309418 70.999313,326.944183 71.003975,340.576080 
	C71.006432,347.742920 71.010353,347.731537 77.963608,348.018768 
	C78.776886,348.052338 79.581490,348.296082 80.245712,348.710327 
	C76.748077,348.978180 73.394844,348.978119 69.791840,348.933746 
	C69.374130,348.909271 69.206184,348.929138 69.038231,348.949036 
	C69.038231,348.949036 68.982033,348.470337 69.300232,347.926331 
	C69.724907,345.566925 69.920067,343.751648 69.924095,341.936005 
	C69.962463,324.648529 69.968430,307.360992 69.983704,290.073456 
	C77.140335,290.168488 84.296967,290.263519 91.742607,290.661987 
z"/>
<path fill="#09243A" opacity="1.000000" stroke="none" 
	d="
M71.037476,153.002228 
	C71.175987,192.500748 71.314499,231.999252 71.183914,271.763611 
	C70.628014,271.531952 70.341217,271.034424 70.027039,269.774780 
	C69.994919,248.925903 69.957535,228.839142 69.995018,208.752518 
	C70.029709,190.164612 70.144539,171.576859 70.427444,152.991470 
	C70.630806,152.993912 71.037476,153.002228 71.037476,153.002228 
z"/>
<path fill="#596B79" opacity="1.000000" stroke="none" 
	d="
M70.224075,152.989029 
	C70.144539,171.576859 70.029709,190.164612 69.995018,208.752518 
	C69.957535,228.839142 69.994919,248.925903 70.000366,269.476685 
	C69.672318,268.090790 69.059898,266.241364 69.056709,264.390869 
	C68.993149,227.506210 68.999947,190.621429 69.297493,153.214752 
	C69.809669,152.791534 70.016869,152.890274 70.224075,152.989029 
z"/>
<path fill="#19354A" opacity="1.000000" stroke="none" 
	d="
M129.277466,310.406311 
	C130.816574,311.484772 132.446167,312.792786 133.645050,314.418457 
	C138.439285,320.919220 145.536377,322.545563 152.840744,324.120575 
	C156.603729,324.931976 160.705063,326.063324 161.005280,331.578430 
	C155.590927,327.346252 149.024353,325.644623 142.332230,323.682281 
	C135.282928,321.615204 128.757278,317.944489 129.277466,310.406311 
z"/>
<path fill="#19354A" opacity="1.000000" stroke="none" 
	d="
M144.758820,288.977875 
	C144.822647,289.667694 144.779556,290.488861 144.524628,290.560944 
	C137.456757,292.559601 134.369934,298.920258 129.636627,303.876007 
	C128.916077,298.169342 132.690567,292.836456 138.967133,290.495544 
	C140.791168,289.815247 142.689102,289.333099 144.758820,288.977875 
z"/>
<path fill="#C87532" opacity="1.000000" stroke="none" 
	d="
M248.169815,306.529419 
	C246.599396,306.302155 244.973724,305.280334 243.248901,305.069489 
	C238.128036,304.443359 237.090088,305.461823 237.070862,310.686371 
	C237.031677,321.339935 237.008163,331.994049 237.086853,342.647125 
	C237.100037,344.431702 237.659836,346.212250 237.752228,348.449341 
	C237.095337,348.891968 236.653290,348.879913 236.211243,348.867859 
	C236.211243,348.867889 236.035675,348.444061 236.003387,347.747955 
	C236.002426,332.994171 236.033783,318.936523 236.065125,304.878845 
	C239.730988,304.625122 243.395279,304.321411 247.065475,304.206757 
	C247.379990,304.196899 247.733719,305.442871 248.169815,306.529419 
z"/>
<path fill="#D79F6B" opacity="1.000000" stroke="none" 
	d="
M292.354980,230.817108 
	C291.967590,211.664520 291.942017,192.282181 291.963989,172.899887 
	C291.965271,171.779068 292.353119,170.658676 292.881714,169.246765 
	C293.133270,187.687180 293.071045,206.418945 292.984436,225.150589 
	C292.976074,226.963196 292.816559,228.775116 292.354980,230.817108 
z"/>
<path fill="#596B79" opacity="1.000000" stroke="none" 
	d="
M69.621941,290.295898 
	C69.968430,307.360992 69.962463,324.648529 69.924095,341.936005 
	C69.920067,343.751648 69.724907,345.566925 69.336578,347.688080 
	C69.123207,328.835327 69.191696,309.676819 69.621941,290.295898 
z"/>
<path fill="#19354A" opacity="1.000000" stroke="none" 
	d="
M213.117569,337.399170 
	C214.035019,337.527161 215.884857,337.778381 216.056976,338.455811 
	C217.524277,344.230713 221.101334,347.700104 226.882706,349.493347 
	C217.670944,350.214478 217.681702,350.210907 214.763229,341.381592 
	C214.350555,340.133179 213.773285,338.939178 213.117569,337.399170 
z"/>
<path fill="#19354A" opacity="1.000000" stroke="none" 
	d="
M193.685181,295.123474 
	C193.372467,303.585571 189.735046,311.231079 185.558151,318.901184 
	C187.963196,311.113892 190.682709,303.225739 193.685181,295.123474 
z"/>
<path fill="#19354A" opacity="1.000000" stroke="none" 
	d="
M89.624237,133.056946 
	C85.863174,136.038666 84.742065,140.288712 84.303802,145.159790 
	C83.981918,148.737335 81.708626,150.870758 77.385025,149.390015 
	C82.347359,147.861755 83.784752,144.467728 83.093513,139.342636 
	C82.520195,135.091873 84.747566,132.784286 89.624237,133.056946 
z"/>
<path fill="#F8B989" opacity="1.000000" stroke="none" 
	d="
M235.672928,305.095947 
	C236.033783,318.936523 236.002426,332.994171 235.983871,347.519409 
	C235.456573,343.572937 234.465408,339.158539 234.468353,334.744843 
	C234.474899,324.934082 234.979294,315.123657 235.672928,305.095947 
z"/>
<path fill="#D28D57" opacity="1.000000" stroke="none" 
	d="
M236.323135,349.288696 
	C236.653290,348.879913 237.095337,348.891968 237.866669,348.841614 
	C238.574310,348.803802 238.952682,348.828369 240.014160,348.905273 
	C241.494110,348.942444 242.290939,348.927246 243.087753,348.912048 
	C246.720535,349.363953 247.003616,347.144196 247.019485,344.324036 
	C247.063980,336.419891 247.291489,328.516785 247.730240,320.305328 
	C248.013687,329.852173 248.013687,339.706909 248.013687,349.709534 
	C243.900772,349.709534 240.167908,349.709534 236.323135,349.288696 
z"/>
<path fill="#D28D57" opacity="1.000000" stroke="none" 
	d="
M351.446106,313.095032 
	C353.188629,312.751526 355.518341,312.662384 357.545471,311.833344 
	C358.900024,311.279419 360.696960,309.675018 360.699493,308.537140 
	C360.702118,307.360809 358.983002,305.626099 357.645844,305.123840 
	C355.309845,304.246399 352.689636,304.125732 350.100037,303.302216 
	C353.036957,303.285706 356.061737,303.943481 359.087830,303.949463 
	C362.684662,303.956573 362.805908,306.267151 362.991028,308.765228 
	C363.188049,311.423950 362.593140,313.289886 359.292511,313.061523 
	C356.840973,312.891937 354.368011,313.032349 351.446106,313.095032 
z"/>
<path fill="#D28D57" opacity="1.000000" stroke="none" 
	d="
M350.045715,302.561768 
	C349.702148,301.811646 349.332031,300.599487 348.945038,299.392761 
	C348.290283,297.350891 347.406647,293.511810 346.998932,293.561218 
	C344.089111,293.913879 341.271088,295.046661 338.438110,295.974731 
	C338.165680,296.063995 337.990204,296.449249 337.482452,296.908386 
	C337.195190,295.531311 337.195190,293.942932 337.195190,292.302063 
	C341.103699,292.014648 344.901123,291.735382 350.011566,291.359589 
	C350.011566,294.842316 350.011566,298.472229 350.045715,302.561768 
z"/>
<path fill="#FFDAB3" opacity="1.000000" stroke="none" 
	d="
M276.327881,349.887573 
	C276.252899,348.063873 276.926788,346.337708 276.941925,344.605835 
	C277.025513,335.034851 276.948547,325.462433 276.915894,315.417023 
	C277.271881,315.570068 277.954590,316.194763 277.958313,316.823456 
	C278.020142,327.308685 278.016052,337.794586 277.940826,348.279724 
	C277.936707,348.850037 277.179321,349.414978 276.327881,349.887573 
z"/>
<path fill="#19354A" opacity="1.000000" stroke="none" 
	d="
M191.504669,269.921997 
	C194.421295,269.578522 197.799622,269.045715 201.179291,269.037079 
	C208.883224,269.017395 216.587799,269.254669 224.617554,269.627869 
	C213.950989,269.902344 202.958969,269.936523 191.504669,269.921997 
z"/>
<path fill="#D79F6B" opacity="1.000000" stroke="none" 
	d="
M377.501465,330.063049 
	C378.899506,329.716827 380.748718,329.072021 382.625366,328.978729 
	C390.395355,328.592407 398.173645,328.372925 406.336426,327.970123 
	C405.917908,332.870819 401.399841,330.219666 399.385590,330.418549 
	C392.327515,331.115601 385.117554,330.274872 377.501465,330.063049 
z"/>
<path fill="#F8B989" opacity="1.000000" stroke="none" 
	d="
M336.989197,313.523071 
	C337.348328,315.277832 338.017609,317.489197 338.061584,319.712921 
	C338.202789,326.858276 338.113068,334.008179 338.113342,341.635498 
	C337.740601,340.827026 337.058502,339.542938 337.043640,338.251221 
	C336.950653,330.163544 337.006470,322.074158 336.989197,313.523071 
z"/>
<path fill="#304858" opacity="1.000000" stroke="none" 
	d="
M113.542458,269.902710 
	C121.473030,269.697052 129.863632,269.530243 138.578522,269.599121 
	C130.602692,269.870392 122.302589,269.905945 113.542458,269.902710 
z"/>
<path fill="#153247" opacity="1.000000" stroke="none" 
	d="
M109.933907,294.495911 
	C105.379372,296.853424 102.143951,293.186371 98.177765,291.284546 
	C101.905571,292.056030 105.805382,293.135986 109.933907,294.495911 
z"/>
<path fill="#304858" opacity="1.000000" stroke="none" 
	d="
M70.041618,348.978058 
	C73.394844,348.978119 76.748077,348.978180 80.560410,348.959351 
	C83.709381,348.949799 86.399261,348.959198 89.536942,348.954468 
	C91.455315,349.093414 92.925880,349.246521 94.659073,349.648712 
	C86.915955,349.924255 78.910217,349.950714 70.457695,349.701904 
	C70.010918,349.426605 70.041618,348.978058 70.041618,348.978058 
z"/>
<path fill="#D28D57" opacity="1.000000" stroke="none" 
	d="
M350.196106,336.577820 
	C349.875580,335.896484 348.995026,334.759552 349.003021,333.628876 
	C349.047821,327.263184 349.306366,320.898987 349.816833,314.252960 
	C350.109894,321.356110 350.078094,328.740601 350.196106,336.577820 
z"/>
<path fill="#19354A" opacity="1.000000" stroke="none" 
	d="
M228.349518,349.861237 
	C228.340591,347.735199 228.686783,345.644592 229.073441,343.136597 
	C229.869370,345.162537 234.993729,347.854980 228.349518,349.861237 
z"/>
<path fill="#19354A" opacity="1.000000" stroke="none" 
	d="
M70.427444,152.991470 
	C70.016869,152.890274 69.809669,152.791534 69.260452,152.733124 
	C70.709435,151.529648 72.500435,150.285828 74.640656,149.086945 
	C73.863152,150.330185 72.736435,151.528519 71.323593,152.864532 
	C71.037476,153.002228 70.630806,152.993912 70.427444,152.991470 
z"/>
<path fill="#D28D57" opacity="1.000000" stroke="none" 
	d="
M248.309631,319.888123 
	C248.506714,319.070862 249.012405,318.128723 249.837128,317.070343 
	C249.643524,317.890472 249.130890,318.826874 248.309631,319.888123 
z"/>
<path fill="#D79F6B" opacity="1.000000" stroke="none" 
	d="
M290.213562,232.785339 
	C290.415497,232.182251 290.923035,231.604691 291.737976,231.003296 
	C291.536621,231.589951 291.027893,232.200394 290.213562,232.785339 
z"/>
<path fill="#19354A" opacity="1.000000" stroke="none" 
	d="
M189.218323,270.810120 
	C189.248795,270.497498 189.513611,270.147003 189.923981,269.933075 
	C189.951172,270.380463 189.745560,270.614685 189.218323,270.810120 
z"/>
<path fill="#596B79" opacity="1.000000" stroke="none" 
	d="
M69.791840,348.933746 
	C70.041618,348.978058 70.010918,349.426605 69.989540,349.650116 
	C69.680496,349.736328 69.392838,349.599030 69.071701,349.205383 
	C69.206184,348.929138 69.374130,348.909271 69.791840,348.933746 
z"/>
<path fill="#19354A" opacity="1.000000" stroke="none" 
	d="
M156.026642,350.185974 
	C156.105118,350.018127 156.294235,350.017517 156.766968,350.029541 
	C156.746140,350.145844 156.441727,350.249573 156.026642,350.185974 
z"/>
<path fill="#153247" opacity="1.000000" stroke="none" 
	d="
M112.955101,296.701569 
	C112.734116,296.843048 112.472176,296.674866 112.122330,296.240967 
	C112.281319,296.186310 112.574562,296.325195 112.955101,296.701569 
z"/>
<path fill="#153247" opacity="1.000000" stroke="none" 
	d="
M95.736374,291.166443 
	C95.965065,291.192169 95.648094,291.460388 95.648094,291.460388 
	C95.648094,291.460388 95.251007,291.425079 95.153107,291.325073 
	C95.055206,291.225098 95.507675,291.140686 95.736374,291.166443 
z"/>
<path fill="#153247" opacity="1.000000" stroke="none" 
	d="
M97.922745,290.828339 
	C98.021011,290.985382 97.522537,291.004150 97.273315,291.009216 
	C97.290894,290.899963 97.557686,290.785645 97.922745,290.828339 
z"/>
<path fill="#19354A" opacity="1.000000" stroke="none" 
	d="
M155.771179,288.893555 
	C155.803940,289.042206 155.499084,289.027435 155.348328,289.033936 
	C155.197586,289.040405 155.380524,288.653687 155.380524,288.653687 
	C155.380524,288.653687 155.738434,288.744873 155.771179,288.893555 
z"/>
<path fill="#19354A" opacity="1.000000" stroke="none" 
	d="
M90.799606,132.882690 
	C90.848953,133.043030 90.456223,133.027756 90.260300,133.031647 
	C90.293007,132.931137 90.521629,132.826736 90.799606,132.882690 
z"/>
<path fill="#000000" opacity="1.000000" stroke="none" 
	d="
M146.978088,253.035156 
	C146.978088,253.035156 146.560654,253.018127 146.155212,252.670593 
	C142.226364,250.956329 138.804153,249.117874 135.155457,248.335037 
	C129.880569,247.203308 124.441582,246.836319 119.072609,246.143066 
	C118.615150,246.112579 118.157700,246.082108 117.255203,245.820786 
	C116.621658,245.317123 116.361610,245.179932 116.030022,245.178406 
	C111.000145,245.154953 105.970276,245.131500 100.086006,245.093719 
	C97.516579,245.459793 95.801537,245.840195 94.086502,246.220596 
	C93.659607,246.133102 93.232719,246.045593 92.447662,245.676880 
	C92.089493,245.395660 91.978180,245.008881 91.983246,244.539703 
	C91.956131,210.385422 91.923943,176.700333 92.114365,142.736313 
	C93.379608,141.963577 94.450203,140.990585 95.460594,141.049530 
	C106.417595,141.688705 117.530602,139.084686 128.357391,142.661270 
	C130.492920,143.366730 132.802567,143.545120 135.031921,143.966599 
	C135.031921,143.966599 135.370087,144.040848 135.726059,144.390259 
	C141.033096,146.848022 145.984146,148.956375 150.935211,151.064713 
	C150.935211,151.064713 150.983017,151.001053 151.068634,151.344788 
	C152.113632,152.077179 153.073029,152.465836 154.032410,152.854477 
	C154.032410,152.854477 154.061096,152.928833 154.219925,153.252747 
	C160.476456,157.407730 162.961411,162.788193 161.986908,170.014084 
	C161.546753,173.277863 161.979523,176.659348 161.981934,180.455872 
	C161.956543,205.405243 161.986099,229.886246 161.934341,254.367050 
	C161.930313,256.274475 161.356995,258.180725 161.048279,260.087494 
	C160.871567,260.082642 160.694855,260.077820 160.017807,260.026001 
	C159.517487,259.979034 159.037445,259.932434 159.037445,259.932434 
	C159.037445,259.932434 159.000687,259.997620 158.878540,259.682281 
	C157.860504,258.889679 156.964630,258.412415 156.068756,257.935150 
	C156.068756,257.935150 156.057861,257.955200 155.976929,257.695862 
	C155.585892,257.298340 155.275803,257.160126 154.965698,257.021912 
	C154.965698,257.021912 154.579376,256.996460 154.269806,256.708862 
	C153.627548,256.287750 153.294861,256.154205 152.962189,256.020630 
	C152.962189,256.020630 152.526703,256.030060 152.215088,255.725128 
	C150.930511,254.939133 149.957565,254.458069 148.984604,253.976990 
	C148.984604,253.976990 148.577133,253.977417 148.258118,253.715103 
	C147.618759,253.313583 147.298431,253.174362 146.978088,253.035156 
z"/>
<path fill="#000000" opacity="1.000000" stroke="none" 
	d="
M192.992111,228.992554 
	C193.708542,232.817200 196.611801,233.897827 199.854706,233.921448 
	C208.809128,233.986710 217.765259,233.777847 226.720963,233.744843 
	C228.109970,233.739731 229.500290,234.089294 231.528702,234.360123 
	C229.214798,238.025574 227.174164,241.258148 224.621918,244.799683 
	C223.070618,245.503113 222.030945,245.897552 220.991272,246.291992 
	C218.939972,246.219940 216.888657,246.147888 214.319458,245.872162 
	C213.516281,245.773132 213.230972,245.877747 212.945663,245.982361 
	C212.945663,245.982361 212.463440,246.036758 211.796997,246.024414 
	C208.855103,246.268021 206.552368,246.379745 204.308716,246.804001 
	C192.417343,249.052628 181.487900,253.769577 171.084015,259.463989 
	C171.024658,227.114746 171.010254,195.227097 171.029221,163.339447 
	C171.029877,162.216125 171.361588,161.093018 171.539001,159.969803 
	C179.879028,152.287140 190.047348,148.096634 200.434174,143.954727 
	C211.405701,139.579666 222.692703,141.739502 233.806229,140.730499 
	C237.233475,140.419327 239.375900,141.992905 239.087677,146.065033 
	C238.806198,150.041809 239.067886,154.057022 238.637360,158.534973 
	C227.752029,159.083893 217.320511,159.153214 206.888977,159.222519 
	C201.840286,159.515472 196.770767,159.631683 191.757126,160.222198 
	C190.458923,160.375122 188.190735,162.285400 188.341339,162.920700 
	C188.845459,165.047440 190.242798,166.962433 191.667130,169.487839 
	C192.033447,188.199554 192.008392,206.382034 192.069733,224.564224 
	C192.074707,226.041351 192.670731,227.516495 192.992111,228.992554 
z"/>
<path fill="#000000" opacity="1.000000" stroke="none" 
	d="
M78.903526,157.112900 
	C79.835007,156.925797 80.766479,156.738693 81.854088,157.281006 
	C82.007851,188.094666 81.989059,218.178925 82.047340,248.263031 
	C82.050552,249.919968 82.694145,251.575668 83.179291,253.553467 
	C85.287720,254.519821 87.457512,256.056488 89.192818,255.665375 
	C100.855499,253.036819 112.557899,253.481537 124.150574,255.319763 
	C130.224609,256.282898 136.042633,258.860504 141.515793,260.813141 
	C129.836639,260.928680 118.617638,260.902924 107.399643,260.996277 
	C105.918030,261.008606 104.441467,261.628601 102.585449,261.992188 
	C100.277634,262.192749 98.331169,262.266632 96.419281,262.563263 
	C91.279594,263.360779 86.154671,264.253418 81.023888,265.108276 
	C81.023888,265.108307 80.572983,265.023590 80.248215,264.767456 
	C79.749100,264.223846 79.498756,264.039642 79.095642,263.498291 
	C78.980431,227.729523 78.941978,192.421219 78.903526,157.112900 
z"/>
<path fill="#000000" opacity="1.000000" stroke="none" 
	d="
M227.009293,261.603790 
	C228.141098,259.425903 229.272888,257.248047 231.141144,254.972839 
	C236.110519,255.148376 240.378876,255.837784 244.558441,255.482620 
	C246.159668,255.346558 247.558121,252.824478 249.048965,251.389664 
	C247.463394,249.825058 246.127502,247.722595 244.225479,246.839676 
	C242.114548,245.859772 239.486893,245.992966 237.084229,245.641510 
	C238.886841,242.675690 240.689438,239.709854 242.558899,236.634048 
	C246.810715,242.758926 250.698837,248.359909 254.941711,254.113159 
	C255.215912,256.701599 255.385025,259.181915 254.964935,261.558044 
	C254.695633,263.081329 253.557587,264.450989 252.312134,265.736755 
	C251.623703,265.312836 251.362000,265.171967 251.030182,265.161377 
	C250.283096,265.123138 249.536026,265.084930 248.210983,264.695007 
	C246.433517,264.280518 245.233994,264.217712 244.034485,264.154907 
	C243.566086,264.154236 243.097702,264.153534 241.950180,264.075317 
	C240.176758,263.740997 239.082458,263.484192 237.988159,263.227386 
	C237.538361,263.195892 237.088562,263.164398 236.018372,262.972809 
	C234.266022,262.880066 233.134079,262.947418 232.002136,263.014832 
	C230.938965,263.025665 229.875793,263.036499 228.292267,262.771912 
	C227.517700,262.198914 227.263489,261.901367 227.009293,261.603790 
z"/>
<path fill="#153247" opacity="1.000000" stroke="none" 
	d="
M141.976273,260.708984 
	C136.042633,258.860504 130.224609,256.282898 124.150574,255.319763 
	C112.557899,253.481537 100.855499,253.036819 89.192818,255.665375 
	C87.457512,256.056488 85.287720,254.519821 83.250214,253.073471 
	C83.188393,239.836731 83.195290,227.401520 83.202179,214.966324 
	C83.469643,216.734924 83.901535,218.496536 83.976997,220.273300 
	C84.370270,229.532730 84.689133,238.795471 84.998779,248.058243 
	C85.117775,251.617661 87.058403,253.422546 90.427467,252.923676 
	C101.382515,251.301468 112.359261,251.287247 123.209587,253.127182 
	C130.162262,254.306183 136.930862,256.627319 143.710373,258.673706 
	C144.315002,258.856201 144.390732,260.791046 144.384689,261.984558 
	C144.057281,262.057098 144.002563,262.001862 143.931580,261.653137 
	C143.232483,261.105957 142.604370,260.907471 141.976273,260.708984 
z"/>
<path fill="#000000" opacity="1.000000" stroke="none" 
	d="
M218.043793,255.204926 
	C217.733185,255.969086 217.422562,256.733215 216.613937,257.996399 
	C215.074570,259.319061 214.071823,260.788300 212.985092,260.853302 
	C208.543503,261.118927 204.072083,261.070343 199.619995,260.908112 
	C196.848007,260.807098 194.090973,260.295410 191.691742,259.934692 
	C198.060013,258.307037 204.063766,256.712677 210.067505,255.118317 
	C210.067505,255.118301 210.527740,254.991684 211.150101,254.971466 
	C213.862900,255.035812 215.953354,255.120377 218.043793,255.204926 
z"/>
<path fill="#B2BFD0" opacity="1.000000" stroke="none" 
	d="
M78.646866,157.144073 
	C78.941978,192.421219 78.980431,227.729523 79.015900,263.749268 
	C78.992935,264.635132 78.972961,264.809509 78.952988,264.983917 
	C78.634232,264.519745 78.315475,264.055542 78.001198,262.828430 
	C77.948013,227.385925 77.890350,192.706345 77.832687,158.026749 
	C78.018524,157.742920 78.204361,157.459091 78.646866,157.144073 
z"/>
<path fill="#153247" opacity="1.000000" stroke="none" 
	d="
M77.598900,158.364212 
	C77.890350,192.706345 77.948013,227.385925 77.930588,262.529236 
	C77.569107,261.733704 77.034325,260.474762 77.032600,259.215088 
	C76.987808,226.524094 76.995789,193.832993 77.014771,161.141937 
	C77.015236,160.328445 77.243233,159.515091 77.598900,158.364212 
z"/>
<path fill="#304858" opacity="1.000000" stroke="none" 
	d="
M91.891762,143.015244 
	C91.923943,176.700333 91.956131,210.385422 91.737595,244.559448 
	C91.486870,245.048386 90.993820,245.048447 90.993820,245.048447 
	C90.993011,244.870361 90.992203,244.692261 90.986374,243.781036 
	C90.967911,213.394714 90.954468,183.741516 90.941025,154.088318 
	C90.946922,153.894882 90.952827,153.701462 90.968567,152.776611 
	C90.972572,149.370605 90.966743,146.695999 90.960907,144.021393 
	C90.967056,143.852692 90.973221,143.683990 91.212227,143.258377 
	C91.445068,143.001480 91.891762,143.015244 91.891762,143.015244 
z"/>
<path fill="#8193A2" opacity="1.000000" stroke="none" 
	d="
M171.121918,160.132812 
	C171.361588,161.093018 171.029877,162.216125 171.029221,163.339447 
	C171.010254,195.227097 171.024658,227.114746 171.013733,259.717163 
	C170.989227,260.606964 170.984589,260.782013 170.979950,260.957092 
	C170.653152,259.754578 170.043198,258.552612 170.040924,257.349457 
	C169.981995,226.265961 169.977814,195.182327 170.010437,164.098770 
	C170.011780,162.830887 170.463135,161.563477 171.121918,160.132812 
z"/>
<path fill="#D2E6E6" opacity="1.000000" stroke="none" 
	d="
M83.128624,214.640244 
	C83.195290,227.401520 83.188393,239.836731 83.110580,252.751923 
	C82.694145,251.575668 82.050552,249.919968 82.047340,248.263031 
	C81.989059,218.178925 82.007851,188.094666 82.050873,157.546967 
	C82.390961,157.221725 82.690384,157.359985 83.012123,158.208679 
	C83.088005,175.612427 83.141579,192.305771 83.195152,208.999100 
	C83.144142,209.447189 83.093124,209.895279 83.039642,211.003693 
	C83.087318,212.106461 83.137459,212.548889 83.187607,212.991333 
	C83.143425,213.432281 83.099243,213.873215 83.128624,214.640244 
z"/>
<path fill="#153247" opacity="1.000000" stroke="none" 
	d="
M171.212814,261.203339 
	C170.984589,260.782013 170.989227,260.606964 171.064133,260.178711 
	C181.487900,253.769577 192.417343,249.052628 204.308716,246.804001 
	C206.552368,246.379745 208.855103,246.268021 211.556442,246.056152 
	C208.403412,247.313232 204.759766,248.365067 201.258331,249.771011 
	C192.475281,253.297638 183.764481,257.003876 175.002289,260.583160 
	C173.885178,261.039490 172.634476,261.168793 171.212814,261.203339 
z"/>
<path fill="#09243A" opacity="1.000000" stroke="none" 
	d="
M90.685028,154.400818 
	C90.954468,183.741516 90.967911,213.394714 90.974457,243.514175 
	C90.649452,242.737305 90.055962,241.494675 90.053680,240.250961 
	C90.002876,212.547699 90.013794,184.844345 90.036461,157.141006 
	C90.037117,156.331665 90.292442,155.522537 90.685028,154.400818 
z"/>
<path fill="#19354A" opacity="1.000000" stroke="none" 
	d="
M92.114365,142.736313 
	C91.891762,143.015244 91.445068,143.001480 91.221619,143.005310 
	C92.271385,141.699524 93.542435,139.257935 94.818176,139.255478 
	C107.470619,139.231064 120.300934,137.374756 132.600540,142.052017 
	C133.340927,142.333572 133.966827,142.916153 134.838959,143.662628 
	C132.802567,143.545120 130.492920,143.366730 128.357391,142.661270 
	C117.530602,139.084686 106.417595,141.688705 95.460594,141.049530 
	C94.450203,140.990585 93.379608,141.963577 92.114365,142.736313 
z"/>
<path fill="#153247" opacity="1.000000" stroke="none" 
	d="
M81.327919,265.344879 
	C86.154671,264.253418 91.279594,263.360779 96.419281,262.563263 
	C98.331169,262.266632 100.277634,262.192749 103.054123,262.051880 
	C117.267464,262.058319 130.635010,262.030090 144.002563,262.001862 
	C144.002563,262.001862 144.057281,262.057098 144.084808,262.085297 
	C143.240799,262.628662 142.327499,263.652039 141.503845,263.584351 
	C122.921600,262.057404 104.446922,262.905487 86.036873,265.743988 
	C84.610817,265.963867 83.102196,265.648224 81.327919,265.344879 
z"/>
<path fill="#304858" opacity="1.000000" stroke="none" 
	d="
M161.308929,260.298584 
	C161.356995,258.180725 161.930313,256.274475 161.934341,254.367050 
	C161.986099,229.886246 161.956543,205.405243 162.231674,180.437698 
	C162.682739,179.949829 162.849731,179.948578 163.016724,179.947311 
	C163.013794,205.279922 163.035660,230.612610 162.946442,255.944916 
	C162.941071,257.468079 162.049026,258.988129 161.308929,260.298584 
z"/>
<path fill="#153247" opacity="1.000000" stroke="none" 
	d="
M209.919662,254.831741 
	C204.063766,256.712677 198.060013,258.307037 191.321548,259.948975 
	C189.810623,260.579651 189.034424,261.162781 187.239990,262.510834 
	C190.310425,262.815460 192.153046,262.998260 193.995682,263.181061 
	C190.892960,263.181061 187.790237,263.181061 184.687515,263.181061 
	C184.528427,262.483734 184.369339,261.786407 184.210236,261.089081 
	C188.490021,259.327606 192.716934,257.419281 197.066986,255.852966 
	C200.311417,254.684769 203.688461,253.829742 207.067856,253.133209 
	C207.839401,252.974182 208.863800,254.042007 209.919662,254.831741 
z"/>
<path fill="#153247" opacity="1.000000" stroke="none" 
	d="
M83.421181,208.653961 
	C83.141579,192.305771 83.088005,175.612427 83.109497,158.454636 
	C83.650063,158.395325 84.525375,158.803940 84.521988,159.205139 
	C84.388084,175.091248 84.177101,190.976700 83.958244,206.862000 
	C83.951584,207.345627 83.755157,207.826614 83.421181,208.653961 
z"/>
<path fill="#153247" opacity="1.000000" stroke="none" 
	d="
M218.348755,255.039413 
	C215.953354,255.120377 213.862900,255.035812 211.380463,254.909088 
	C211.419006,253.363541 211.849548,251.860184 212.420242,249.867416 
	C214.337402,250.949738 215.704895,251.721756 218.038239,253.039032 
	C219.033096,251.003891 220.013000,248.999329 220.992096,246.643372 
	C222.030945,245.897552 223.070618,245.503113 224.444153,245.122314 
	C222.736572,248.381943 220.695145,251.627914 218.348755,255.039413 
z"/>
<path fill="#8193A2" opacity="1.000000" stroke="none" 
	d="
M194.446533,263.135986 
	C192.153046,262.998260 190.310425,262.815460 187.239990,262.510834 
	C189.034424,261.162781 189.810623,260.579651 190.957031,259.982300 
	C194.090973,260.295410 196.848007,260.807098 199.619995,260.908112 
	C204.072083,261.070343 208.543503,261.118927 212.985092,260.853302 
	C214.071823,260.788300 215.074570,259.319061 216.422638,258.261169 
	C216.972137,259.066376 217.214905,260.105835 217.125458,261.505188 
	C213.880386,261.974976 210.967545,262.084900 208.054688,262.194824 
	C203.668915,262.493530 199.283142,262.792236 194.446533,263.135986 
z"/>
<path fill="#153247" opacity="1.000000" stroke="none" 
	d="
M119.329742,246.401733 
	C124.441582,246.836319 129.880569,247.203308 135.155457,248.335037 
	C138.804153,249.117874 142.226364,250.956329 145.950012,252.631653 
	C143.169403,252.267197 140.181778,251.622803 137.209229,250.915009 
	C131.330704,249.515320 125.460510,248.080612 119.329742,246.401733 
z"/>
<path fill="#19354A" opacity="1.000000" stroke="none" 
	d="
M163.014542,179.484375 
	C162.849731,179.948578 162.682739,179.949829 162.266006,179.969269 
	C161.979523,176.659348 161.546753,173.277863 161.986908,170.014084 
	C162.961411,162.788193 160.476456,157.407730 154.257187,153.266891 
	C160.912231,154.398224 163.195633,157.359909 163.032379,164.124084 
	C162.912598,169.087128 163.011124,174.055450 163.014542,179.484375 
z"/>
<path fill="#19354A" opacity="1.000000" stroke="none" 
	d="
M150.888275,150.721527 
	C145.984146,148.956375 141.033096,146.848022 135.896194,144.422211 
	C141.469650,144.469925 147.064331,145.232117 150.888275,150.721527 
z"/>
<path fill="#153247" opacity="1.000000" stroke="none" 
	d="
M208.368912,262.414612 
	C210.967545,262.084900 213.880386,261.974976 217.202148,261.817871 
	C220.439850,261.776398 223.268646,261.782104 226.553375,261.695801 
	C227.263489,261.901367 227.517700,262.198914 227.893646,262.761414 
	C221.571304,262.895660 215.127228,262.765045 208.368912,262.414612 
z"/>
<path fill="#F8B989" opacity="1.000000" stroke="none" 
	d="
M207.255356,159.437775 
	C217.320511,159.153214 227.752029,159.083893 238.668030,159.000885 
	C239.152512,158.987183 239.135544,159.311127 239.149445,159.469620 
	C228.649460,159.636414 218.135605,159.644730 207.255356,159.437775 
z"/>
<path fill="#153247" opacity="1.000000" stroke="none" 
	d="
M94.370010,246.424469 
	C95.801537,245.840195 97.516579,245.459793 99.621849,245.137421 
	C98.225899,245.673096 96.439713,246.150711 94.370010,246.424469 
z"/>
<path fill="#09243A" opacity="1.000000" stroke="none" 
	d="
M90.709923,144.318115 
	C90.966743,146.695999 90.972572,149.370605 90.966385,152.486359 
	C90.789223,150.156616 90.624077,147.385712 90.709923,144.318115 
z"/>
<path fill="#153247" opacity="1.000000" stroke="none" 
	d="
M232.225479,263.247040 
	C233.134079,262.947418 234.266022,262.880066 235.680038,262.981567 
	C234.791016,263.260040 233.619919,263.369659 232.225479,263.247040 
z"/>
<path fill="#153247" opacity="1.000000" stroke="none" 
	d="
M238.079712,263.525940 
	C239.082458,263.484192 240.176758,263.740997 241.599503,264.097229 
	C240.675720,264.072571 239.423477,263.948547 238.079712,263.525940 
z"/>
<path fill="#153247" opacity="1.000000" stroke="none" 
	d="
M244.238693,264.370911 
	C245.233994,264.217712 246.433517,264.280518 247.840195,264.644958 
	C246.845871,264.826752 245.644394,264.706848 244.238693,264.370911 
z"/>
<path fill="#153247" opacity="1.000000" stroke="none" 
	d="
M149.062988,254.317352 
	C149.957565,254.458069 150.930511,254.939133 151.999542,255.693909 
	C151.110870,255.530975 150.126129,255.094345 149.062988,254.317352 
z"/>
<path fill="#19354A" opacity="1.000000" stroke="none" 
	d="
M153.934570,152.538101 
	C153.073029,152.465836 152.113632,152.077179 151.052261,151.380249 
	C151.912430,151.455215 152.874588,151.838470 153.934570,152.538101 
z"/>
<path fill="#153247" opacity="1.000000" stroke="none" 
	d="
M156.118622,258.278595 
	C156.964630,258.412415 157.860504,258.889679 158.904709,259.655579 
	C158.091537,259.503479 157.130020,259.062744 156.118622,258.278595 
z"/>
<path fill="#153247" opacity="1.000000" stroke="none" 
	d="
M83.359192,212.824631 
	C83.137459,212.548889 83.087318,212.106461 83.111053,211.336060 
	C83.300209,211.558029 83.415489,212.107986 83.359192,212.824631 
z"/>
<path fill="#153247" opacity="1.000000" stroke="none" 
	d="
M91.017929,245.269257 
	C90.993820,245.048447 91.486870,245.048386 91.732529,245.028625 
	C91.978180,245.008881 92.089493,245.395660 92.131912,245.592255 
	C91.796890,245.689255 91.419464,245.589661 91.017929,245.269257 
z"/>
<path fill="#153247" opacity="1.000000" stroke="none" 
	d="
M251.160583,265.339203 
	C251.362000,265.171967 251.623703,265.312836 251.922668,265.788300 
	C251.745148,265.893951 251.498795,265.735413 251.160583,265.339203 
z"/>
<path fill="#153247" opacity="1.000000" stroke="none" 
	d="
M79.245270,264.983551 
	C78.972961,264.809509 78.992935,264.635132 79.092667,264.209717 
	C79.498756,264.039642 79.749100,264.223846 80.022179,264.728333 
	C79.926453,264.957947 79.732002,264.970581 79.245270,264.983551 
z"/>
<path fill="#153247" opacity="1.000000" stroke="none" 
	d="
M159.110291,260.083801 
	C159.037445,259.932434 159.517487,259.979034 159.752716,260.031799 
	C159.987946,260.084534 159.610046,260.380127 159.610046,260.380127 
	C159.610046,260.380127 159.183136,260.235138 159.110291,260.083801 
z"/>
<path fill="#153247" opacity="1.000000" stroke="none" 
	d="
M155.102966,257.222809 
	C155.275803,257.160126 155.585892,257.298340 155.972198,257.692017 
	C155.729370,257.849457 155.459991,257.674866 155.102966,257.222809 
z"/>
<path fill="#153247" opacity="1.000000" stroke="none" 
	d="
M153.120209,256.231232 
	C153.294861,256.154205 153.627548,256.287750 154.078827,256.677246 
	C153.891037,256.769409 153.584641,256.605621 153.120209,256.231232 
z"/>
<path fill="#153247" opacity="1.000000" stroke="none" 
	d="
M147.130188,253.242477 
	C147.298431,253.174362 147.618759,253.313583 148.054871,253.701202 
	C147.874527,253.783020 147.578415,253.616409 147.130188,253.242477 
z"/>
<path fill="#153247" opacity="1.000000" stroke="none" 
	d="
M213.198303,245.991943 
	C213.230972,245.877747 213.516281,245.773132 213.878967,245.842133 
	C213.787888,246.011032 213.619415,246.006271 213.198303,245.991943 
z"/>
<path fill="#153247" opacity="1.000000" stroke="none" 
	d="
M116.159096,245.353119 
	C116.361610,245.179932 116.621658,245.317123 116.912323,245.794922 
	C116.735214,245.899689 116.493111,245.742355 116.159096,245.353119 
z"/>
<path fill="#000000" opacity="1.000000" stroke="none" 
	d="
M283.205109,205.164719 
	C283.143829,210.812836 283.082550,216.460968 282.529388,222.573578 
	C255.348373,222.996872 228.659225,222.955688 201.970093,222.914505 
	C201.970093,222.914505 201.973068,223.013199 201.994797,222.543518 
	C202.074234,204.705872 202.131943,187.337875 202.189651,169.969894 
	C208.439743,169.968933 214.689850,169.967972 221.871918,169.967926 
	C231.898346,169.911224 240.992813,169.853592 250.087265,169.795975 
	C260.798676,169.771439 271.510101,169.746902 282.614624,170.323151 
	C283.073547,182.337540 283.139343,193.751129 283.205109,205.164719 
M215.350708,214.779770 
	C217.077744,214.870392 219.014389,215.507950 220.490005,214.942490 
	C224.012009,213.592865 224.232147,210.254333 224.661530,206.879028 
	C224.917526,206.694275 225.057266,206.444473 225.580078,205.913269 
	C225.744858,205.603119 225.909637,205.292969 226.524597,204.849319 
	C226.812347,204.666229 226.965027,204.404373 227.582718,203.839600 
	C228.422363,202.900192 229.262024,201.960770 230.877655,200.982025 
	C236.437637,200.344666 241.095581,200.636368 242.606888,207.745239 
	C243.290878,210.962692 247.161148,211.937073 250.033813,210.786240 
	C252.046829,209.979828 253.540298,207.527344 254.895599,205.555527 
	C255.748611,204.314499 255.453995,201.888779 256.473999,201.226822 
	C260.933197,198.332809 263.488312,192.958435 269.515686,191.980270 
	C272.983704,191.417450 275.076599,187.981888 273.693268,184.825043 
	C272.649750,182.443695 269.659576,180.159927 267.094849,179.468430 
	C265.408691,179.013809 261.585754,181.050262 261.074829,182.700394 
	C259.603699,187.451797 256.878204,190.546387 253.167908,193.764420 
	C247.713089,198.495468 242.536362,198.096481 238.764755,191.990158 
	C237.551834,190.026413 234.406342,188.849640 231.917694,188.238876 
	C230.510406,187.893509 228.015717,188.965424 227.095108,190.204544 
	C224.098129,194.238480 221.600418,198.643326 218.124664,202.983490 
	C211.070297,204.925049 209.970276,208.928955 215.350708,214.779770 
z"/>
<path fill="#153247" opacity="1.000000" stroke="none" 
	d="
M236.773590,245.828735 
	C239.486893,245.992966 242.114548,245.859772 244.225479,246.839676 
	C246.127502,247.722595 247.463394,249.825058 249.048965,251.389664 
	C247.558121,252.824478 246.159668,255.346558 244.558441,255.482620 
	C240.378876,255.837784 236.110519,255.148376 231.467117,254.831345 
	C232.858765,251.863449 234.660858,248.939697 236.773590,245.828735 
z"/>
<path fill="#FFDAB3" opacity="1.000000" stroke="none" 
	d="
M202.129623,223.181656 
	C228.659225,222.955688 255.348373,222.996872 282.502747,223.043777 
	C282.968018,223.049484 282.834564,223.335205 282.446838,223.596649 
	C280.237823,223.909027 278.416656,223.999466 276.595215,224.004898 
	C252.386581,224.077087 228.177872,224.137360 203.969193,224.200592 
	C203.409180,223.949997 202.849167,223.699402 202.129623,223.181656 
z"/>
<path fill="#C87532" opacity="1.000000" stroke="none" 
	d="
M204.317322,224.426605 
	C228.177872,224.137360 252.386581,224.077087 276.595215,224.004898 
	C278.416656,223.999466 280.237823,223.909027 282.516968,223.737885 
	C281.820221,224.083679 280.666351,224.954025 279.510834,224.956238 
	C254.881851,225.003632 230.252701,224.954559 205.623581,224.911301 
	C205.304047,224.910736 204.984818,224.742538 204.317322,224.426605 
z"/>
<path fill="#FFDAB3" opacity="1.000000" stroke="none" 
	d="
M193.002151,228.524429 
	C192.670731,227.516495 192.074707,226.041351 192.069733,224.564224 
	C192.008392,206.382034 192.033447,188.199554 192.032227,169.558701 
	C192.343536,170.825943 192.925323,172.550476 192.932968,174.277527 
	C193.012466,192.203552 192.999481,210.129990 193.002151,228.524429 
z"/>
<path fill="#D79F6B" opacity="1.000000" stroke="none" 
	d="
M201.844086,170.228348 
	C202.131943,187.337875 202.074234,204.705872 202.044159,222.544250 
	C201.702454,221.968216 201.015610,220.923080 201.011353,219.875183 
	C200.947266,204.046631 200.966782,188.217667 200.999344,172.388885 
	C201.000671,171.754517 201.324799,171.120819 201.844086,170.228348 
z"/>
<path fill="#F8B989" opacity="1.000000" stroke="none" 
	d="
M283.446350,204.808594 
	C283.139343,193.751129 283.073547,182.337540 282.960999,170.455627 
	C283.275543,170.691177 283.953094,171.396103 283.950775,172.098785 
	C283.915192,182.883499 283.791107,193.667953 283.446350,204.808594 
z"/>
<path fill="#FFDAB3" opacity="1.000000" stroke="none" 
	d="
M249.761932,169.521606 
	C240.992813,169.853592 231.898346,169.911224 222.323975,169.886780 
	C225.568481,169.482895 229.290146,168.938477 233.018005,168.891907 
	C238.488541,168.823563 243.963501,169.111252 249.761932,169.521606 
z"/>
<path fill="#000000" opacity="1.000000" stroke="none" 
	d="
M82.959221,301.008362 
	C88.686554,302.033722 94.574806,302.529968 100.102722,304.211090 
	C107.986694,306.608673 111.270332,316.350403 109.951622,325.224182 
	C109.161461,330.541290 101.800537,337.057220 95.206711,337.975189 
	C91.345093,338.512787 87.392693,338.398346 83.249626,337.812378 
	C82.998489,325.034454 82.978851,313.021423 82.959221,301.008362 
z"/>
<path fill="#09243A" opacity="1.000000" stroke="none" 
	d="
M82.039085,337.981903 
	C81.756577,337.898468 81.226212,337.813660 81.226654,337.731750 
	C81.292900,325.692719 81.397598,313.653900 81.750481,301.779388 
	C82.013260,313.956451 82.026176,325.969177 82.039085,337.981903 
z"/>
<path fill="#B2BFD0" opacity="1.000000" stroke="none" 
	d="
M82.252243,338.002136 
	C82.026176,325.969177 82.013260,313.956451 82.037376,301.476349 
	C82.074402,301.008972 82.516769,300.965942 82.737991,300.987152 
	C82.978851,313.021423 82.998489,325.034454 82.954941,337.514893 
	C82.891762,337.982269 82.465408,338.022339 82.252243,338.002136 
z"/>
<path fill="#000000" opacity="1.000000" stroke="none" 
	d="
M302.734680,313.105408 
	C310.068665,312.907837 314.347839,316.268036 315.989349,323.103119 
	C317.424408,329.078613 314.717712,337.108215 309.992737,339.411560 
	C303.654541,342.501312 295.622437,339.173737 294.922150,329.543884 
	C294.421326,322.657227 296.005402,316.901459 302.734680,313.105408 
z"/>
<path fill="#000000" opacity="1.000000" stroke="none" 
	d="
M377.887146,321.160400 
	C377.887146,321.160400 377.582550,321.031006 377.340759,320.694763 
	C377.100861,319.910126 377.102783,319.461731 377.104675,319.013367 
	C377.104675,319.013367 377.028015,319.008453 377.292694,318.968201 
	C377.651794,318.606232 377.746216,318.284515 377.840668,317.962799 
	C379.797394,312.421936 384.339661,312.636139 389.447266,313.318176 
	C390.317963,314.190491 390.680176,314.721405 391.042389,315.252319 
	C391.043427,315.525177 391.161072,315.731567 391.661163,316.246155 
	C391.918091,318.070465 391.909241,319.520050 391.900391,320.969666 
	C391.900391,320.969666 391.997375,320.991455 391.539795,320.978607 
	C386.683868,321.030640 382.285522,321.095520 377.887146,321.160400 
z"/>
<path fill="#D28D57" opacity="1.000000" stroke="none" 
	d="
M378.238403,321.393311 
	C382.285522,321.095520 386.683868,321.030640 391.550018,320.929993 
	C387.541748,321.138184 383.065735,321.382172 378.238403,321.393311 
z"/>
<path fill="#D28D57" opacity="1.000000" stroke="none" 
	d="
M392.273499,320.911713 
	C391.909241,319.520050 391.918091,318.070465 391.842468,316.283630 
	C394.804901,317.084106 394.817322,318.771271 392.273499,320.911713 
z"/>
<path fill="#D28D57" opacity="1.000000" stroke="none" 
	d="
M376.844666,319.142334 
	C377.102783,319.461731 377.100861,319.910126 377.175476,320.687225 
	C377.029510,320.434418 376.807068,319.852875 376.844666,319.142334 
z"/>
<path fill="#D28D57" opacity="1.000000" stroke="none" 
	d="
M391.026855,314.904236 
	C390.680176,314.721405 390.317963,314.190491 389.881348,313.320587 
	C390.208405,313.506439 390.609894,314.031281 391.026855,314.904236 
z"/>
<path fill="#D28D57" opacity="1.000000" stroke="none" 
	d="
M377.649536,318.106384 
	C377.746216,318.284515 377.651794,318.606232 377.292236,319.006592 
	C377.072235,318.755920 377.216034,318.477478 377.649536,318.106384 
z"/>
<path fill="#000000" opacity="1.000000" stroke="none" 
	d="
M196.854065,326.596771 
	C198.210342,319.578888 199.920731,312.775696 201.631119,305.972504 
	C202.009018,305.901215 202.386917,305.829926 202.764816,305.758636 
	C204.928101,312.199219 207.091385,318.639771 209.733658,326.506409 
	C205.307953,326.614197 201.258072,326.712830 196.854065,326.596771 
z"/>
<path fill="#C87532" opacity="1.000000" stroke="none" 
	d="
M242.863220,348.706787 
	C242.290939,348.927246 241.494110,348.942444 240.299835,348.914062 
	C240.814484,348.747467 241.726593,348.624481 242.863220,348.706787 
z"/>
<path fill="#8193A2" opacity="1.000000" stroke="none" 
	d="
M143.931580,261.653137 
	C130.635010,262.030090 117.267464,262.058319 103.431244,262.026855 
	C104.441467,261.628601 105.918030,261.008606 107.399643,260.996277 
	C118.617638,260.902924 129.836639,260.928680 141.515793,260.813141 
	C142.604370,260.907471 143.232483,261.105957 143.931580,261.653137 
z"/>
<path fill="#E27B2A" opacity="1.000000" stroke="none" 
	d="
M225.080750,206.129639 
	C225.057266,206.444473 224.917526,206.694275 224.159729,207.084503 
	C222.820831,207.915329 221.983734,208.540680 221.140076,208.795898 
	C221.637344,206.846375 222.141174,205.266998 222.766907,203.305481 
	C221.238449,203.233521 220.178268,203.183624 219.066284,203.076569 
	C219.014465,203.019424 218.910568,202.905426 218.910568,202.905426 
	C221.600418,198.643326 224.098129,194.238480 227.095108,190.204544 
	C228.015717,188.965424 230.510406,187.893509 231.917694,188.238876 
	C234.406342,188.849640 237.551834,190.026413 238.764755,191.990158 
	C242.536362,198.096481 247.713089,198.495468 253.167908,193.764420 
	C256.878204,190.546387 259.603699,187.451797 261.074829,182.700394 
	C261.585754,181.050262 265.408691,179.013809 267.094849,179.468430 
	C269.659576,180.159927 272.649750,182.443695 273.693268,184.825043 
	C275.076599,187.981888 272.983704,191.417450 269.515686,191.980270 
	C263.488312,192.958435 260.933197,198.332809 256.473999,201.226822 
	C255.453995,201.888779 255.748611,204.314499 254.895599,205.555527 
	C253.540298,207.527344 252.046829,209.979828 250.033813,210.786240 
	C247.161148,211.937073 243.290878,210.962692 242.606888,207.745239 
	C241.095581,200.636368 236.437637,200.344666 230.114441,200.997406 
	C228.561691,202.029785 227.772156,203.046783 226.982635,204.063766 
	C226.965027,204.404373 226.812347,204.666229 226.067688,204.931030 
	C225.434097,205.385040 225.257416,205.757339 225.080750,206.129639 
z"/>
<path fill="#E27B2A" opacity="1.000000" stroke="none" 
	d="
M215.059204,214.141220 
	C209.970276,208.928955 211.070297,204.925049 218.517609,202.944458 
	C218.910568,202.905426 219.014465,203.019424 218.945282,203.384613 
	C217.194168,205.462036 212.888184,205.426361 214.471252,209.222916 
	C215.160095,210.874893 217.531982,211.825089 218.864349,213.327911 
	C217.412552,213.754944 216.235870,213.948090 215.059204,214.141220 
z"/>
<path fill="#D28D57" opacity="1.000000" stroke="none" 
	d="
M215.204956,214.460495 
	C216.235870,213.948090 217.412552,213.754944 219.142502,213.142609 
	C220.179398,211.537643 220.663025,210.351852 221.146637,209.166046 
	C221.983734,208.540680 222.820831,207.915329 223.948730,207.148193 
	C224.232147,210.254333 224.012009,213.592865 220.490005,214.942490 
	C219.014389,215.507950 217.077744,214.870392 215.204956,214.460495 
z"/>
<path fill="#D28D57" opacity="1.000000" stroke="none" 
	d="
M227.282684,203.951691 
	C227.772156,203.046783 228.561691,202.029785 229.726456,201.017075 
	C229.262024,201.960770 228.422363,202.900192 227.282684,203.951691 
z"/>
<path fill="#D28D57" opacity="1.000000" stroke="none" 
	d="
M225.330414,206.021454 
	C225.257416,205.757339 225.434097,205.385040 225.842590,204.997772 
	C225.909637,205.292969 225.744858,205.603119 225.330414,206.021454 
z"/>
<path fill="#F1791B" opacity="1.000000" stroke="none" 
	d="
M221.140076,208.795898 
	C220.663025,210.351852 220.179398,211.537643 219.417633,212.908722 
	C217.531982,211.825089 215.160095,210.874893 214.471252,209.222916 
	C212.888184,205.426361 217.194168,205.462036 218.997101,203.441772 
	C220.178268,203.183624 221.238449,203.233521 222.766907,203.305481 
	C222.141174,205.266998 221.637344,206.846375 221.140076,208.795898 
z"/>
</svg>